<?xml version="1.0" encoding="utf-8"?>
<!-- Generator: Adobe Illustrator 28.1.0, SVG Export Plug-In . SVG Version: 6.00 Build 0)  -->
<svg version="1.1" id="Layer_1" xmlns="http://www.w3.org/2000/svg" xmlns:xlink="http://www.w3.org/1999/xlink" x="0px" y="0px"
	 viewBox="0 0 512 512" style="enable-background:new 0 0 512 512;" xml:space="preserve">
<g>
	<path d="M499.6,101.1c0,10.8-25.9,32.3-56.4,35s-268.3,8.1-331.4-0.9c-31.6-4.5-56.4-10.8-75.5-18.8C-1,99.4,11.4,85.9,32.8,85
		c10.1,0,38.3,1.8,83.4,4.5c90.2,5.4,249.2,3.6,279.6-7.2c30.4-10.8,57.5-10.8,82.3,0.9C492.8,89.5,499.6,95.8,499.6,101.1z"/>
	<path d="M499.6,249.9c0,10.8-25.9,32.3-56.4,35S174.9,293,111.8,284c-31.6-4.5-56.4-10.8-75.5-18.9c-37.2-17.1-24.8-30.5-3.4-31.4
		c10.1,0,38.3,1.8,83.4,4.5c90.2,5.4,249.2,3.6,279.6-7.2c30.4-10.8,57.5-10.8,82.3,0.9C492.8,238.2,499.6,244.5,499.6,249.9z"/>
	<path d="M499.6,398.6c0,10.8-25.9,32.3-56.4,35c-30.4,2.7-268.3,8.1-331.4-0.9c-31.6-4.5-56.4-10.8-75.5-18.9
		c-37.2-17.1-24.8-30.5-3.4-31.4c10.1,0,38.3,1.8,83.4,4.5c90.2,5.4,249.2,3.6,279.6-7.2c30.4-10.8,57.5-10.8,82.3,0.9
		C492.8,386.9,499.6,393.2,499.6,398.6z"/>
</g>
</svg>
