<?xml version="1.0" encoding="utf-8"?>
<!-- Generator: Adobe Illustrator 28.1.0, SVG Export Plug-In . SVG Version: 6.00 Build 0)  -->
<svg version="1.1" xmlns="http://www.w3.org/2000/svg" xmlns:xlink="http://www.w3.org/1999/xlink" x="0px" y="0px"
	 viewBox="0 0 512 512" style="enable-background:new 0 0 512 512;" xml:space="preserve">
<style type="text/css">
	.st0{fill:#E8C3B8;}
	.st1{fill:#333333;}
	.st2{fill:#777777;}
</style>
<g id="Layer_2">
</g>
<g id="Layer_1">
	<g>
		<path class="st0" d="M356.9,21c2.7-1.6,4.6-4.5,7-6.6c5.2-4.6,11-7.3,17.4-8.3c1.4-0.2,2.8-0.2,4.2,0.3c1.4,0.4,3,1,4.4,0.8
			c6-0.8,10.8,2,14.9,6.7c0.9,1,1.6,1,2.8,0.9c3.4-0.1,7.2-0.1,9.8,3.1c1.5,1.8,3.1,2.8,4.9,3.9c1.2,0.8,2.3,1.7,3.3,2.7
			c1.2,1.2,1.9,2.5,3.7,0.7c1.4-1.4,2,0.8,2.7,1.9c0.4,0.8,0.4,1.7,0.4,2.6c-0.1,0.9-1.1,2.4,0.6,2.5c1.2,0.1,2.8,0.9,3.1-1.7
			c0-0.5,0.2-1,0.4-1.4c0.5-1.2,0.2-3.2,1.9-3.4c1.7-0.2,2.9,1.2,3.3,2.7c1.3,4.9,3.9,6.9,8.1,6.6c1.5-0.1,3,1,4.5,1.7
			c1.9,0.8,2.2,2.3,1.2,4.3c-0.7,1.4-1.5,2.6-0.3,4.2c0.5,0.7-0.2,1.4-0.5,2.1c-2.2,4.6-4.5,9.3-6.7,14c-0.2,0.5-0.7,0.9-0.3,2
			c3.6-3.4,8.6-4.7,10.3-10.8c0.5-1.9,1.6-3.7,2.5-5.5c0.5-1,1.3-1.3,2.1-0.8c0.9,0.6,0.9,1.6,0.6,2.6c-0.8,2.5-2.4,4.5-3,7.3
			c2.3-0.2,4.6,1,6.3-1.8c0.6-1,1.8-0.3,2.1,0.5c1.1,3.2,3.8,4,5.8,5.7c7,5.8,10.8,13.8,12.1,23.7c0.1,0.5,0,1.2,0.2,1.4
			c3,2.8,1.3,5.9,0.4,8.9c-0.6,2-1.6,3.5,1.4,4.5c3.8,1.3,3.7,2.2,1.9,6.4c-1.1,2.6-2.7,5-3.4,7.9c-0.4,0.3-0.5,0.7-0.5,1.2
			c-0.1,0.1-0.1,0.2-0.2,0.3c0.1-0.1,0.2-0.2,0.3-0.3c0.4-0.2,0.5-0.7,0.6-1.1c1.6-0.4,2-2.1,2.5-3.4c1.1-2.6,2.4-2.4,4-0.9
			c2.3,2.1,3.6,5,4.2,8.2c0.5,2.9,1,5.8,0.5,8.8c-0.1,0.7-0.2,1.3,0.2,1.9c2.7,3.6,2.1,8,1.8,12.2c-0.1,0.8-0.2,1.5,0.3,2.2
			c4.2,5.7,3.7,12.4,2.6,19.1c-0.3,1.6-0.6,3.3-1,4.9c-0.2,0.9-0.2,1.7,0.2,2.6c3.8,7,3.6,14.6,2.3,22.4
			c-2.5,14.7-8.1,27.8-14.3,40.7c-9.1,19-19.7,36.8-30.8,54.1c-7.2,11.2-14.6,22.1-22.1,33c-4.8,7-10,13.5-14.7,20.5
			c-3.8,5.7-8.1,11-11.4,17.3c-2.2,4.3-4.7,8.4-8.4,11.3c-1.4,1.1-3.1,1.7-4.5,0.7c-1.8-1.3-2.3,0.1-3,1.4
			c-8.9,15.3-17.5,30.8-25.8,46.6c-7.8,14.9-17,28.7-28,40.6c-7.7,8.3-16.1,15.2-26.6,17.3c-3.2,0.7-6.5,0.4-9.8,0.2
			c-1.3,0-2.1,0.4-3,1.6c-3.5,5.3-7.3,10.3-11.9,14.3c-6.8,5.7-14,8.3-22.1,4.7c-0.4-0.2-0.8-0.3-1.2-0.2c-3.2,0.2-4.1-1.2-2.6-4.5
			c2.9-6.2,4.6-12.9,7.1-19.3c0.8-2.2,1.5-4.5,2.3-7c-1.3,0.2-1.5,1.3-1.9,2.1c-5.9,12.3-11.8,24.6-17.7,37
			c-0.1,0.2-0.2,0.4-0.2,0.5c-0.5,1.2-1.1,2.5-2.5,1.7c-1.4-0.8-1-2.3-0.4-3.6c2.2-4.8,4.4-9.5,6.6-14.3c2.4-5.2,4.7-10.5,7-15.7
			c0.1-0.1,0.1-0.2,0.2-0.3c-0.1,0.1-0.2,0.2-0.2,0.3c-2.2,0.7-3.4,2.6-4.5,4.8c-3.6,7.1-7.4,14.1-11.6,20.8c-2.4,3.8-3.7,4-6.6,0.7
			c-0.8-0.9-1.7-1.9-2-3c-0.7-2.5-2.9-0.8-3.9-2.3c-0.9-1.3,0.4-3.7-1.8-4.6c-1-0.4-1.7-2-3.1-1c-0.5,0.3-1.4-0.1-1.5-0.7
			c-0.3-3.6-3.2-3.3-5-4.7c-0.2-0.2-0.5-0.3-0.7-0.4c-4-2.1-4-2.2-2.4-6.9c-1.5-0.4-3.1-0.3-4.6-1.1c-2.5-1.3-2.7-2.5-1.1-4.9
			c0.9-1.4,1.8-2.8,2.7-4.2c0.1-0.1-0.1-0.3-0.1-0.7c-1.1,0.1-1.6,1.3-2.3,2.1c-1.6,1.8-3.4,3.2-5.6,3.7c-1.3,0.3-2.5-0.3-3.3-1.5
			c-0.8-1.3,0.3-2.2,0.7-3.1c0.2-0.3,0.5-0.7,0.5-1c0.1-1.1,2-2.2,0.7-2.8c-1.1-0.6-3.1-1.4-4.2,0.9c-0.3,0.6-0.6,1.2-1,1.7
			c-0.6,0.8-1.3,0.9-2,0.4c-0.8-0.5-0.8-1.4-0.6-2.3c0.2-0.9,1.3-1.7,0.4-2.6c-0.9-1.1-1.9-0.2-2.8,0.2c-2.4,1.1-4.7,1.1-7-0.2
			c-1.7-0.9-2.4-2.1-0.9-4.1c2-2.7,3.9-5.4,6-8.3c-1.2-0.7-2,0-2.8,0.6c-1.8,1.6-4.2,1.7-6,3.4c-0.9,0.8-5-2.9-5.1-4.5
			c-0.1-1-0.1-1.8-0.9-2.5c-2.5-2.4-2.5-2.5-2.8-6.4c-1,0.7-2.1,1.3-3.2,0.1c-0.6-0.7-1.4-0.5-2.1-0.6c-0.7,0-1.5-0.1-2.2-0.3
			c-2.2-0.6-3.3-4.1-6.6-2.3c-1.5,0.8-2.7-2.9-3.5-5.1c-0.4-1.1-0.3-2.1-1.9-1.7c-1.7,0.4-2.2-0.9-1.5-2.8c0.3-0.9,1-1.6,0.8-2.9
			c-5.9,1.8-9.3-1.9-11.7-7.6c-0.3-0.8-0.8-1.8-1.5-1.9c-2.9-0.6-4.8-3.4-7.5-4.4c-1.4-0.5-1.2-2.2-2-3.2c-2.5-2.8-4.2-6.2-5.2-10
			c-0.4-1.3-1.1-2-2.2-2.5c-2.7-1.4-5.2-3.2-5.8-7.1c-0.2-1.2-1.1-1.2-1.8-1.3c-2.7-0.7-4.9-1.8-5.4-5.6c-0.2-1.3-1.5-2-2.6-1.6
			c-2.3,0.8-2.7-0.8-2.1-2.7c0.6-2.2-0.2-2.3-1.6-2.3c-2.8,0-5.5-0.7-7.9-2.3c-1-0.7-1.7-1.3-1.2-3c0.8-2.4-0.7-5.9-2.9-5.9
			c-5,0-7-4.2-9.3-8.2c-0.8-1.4-1-3.3-2.7-4c-0.7-0.3-0.9-1.2-0.4-2c1.4-2.7,0.5-5.5,0.8-8.8c-1.9,4-2.7,4.1-5.1,1.2
			c-1-1.3-1.8-2.8-2.8-4.5c-0.6,1.1-1.3,2.7-2.8,1.7c-1.3-0.9-0.9-2.5-0.4-3.7c1.1-2.6-0.4-3.8-1.8-4.1c-2.8-0.7-2.6-2.6-1.8-4.8
			c0.5-1.6,0.7-2.4-1.3-2.8c-6.7-1.4-10.4-6.5-11.1-15c-0.1-1.7-0.5-2.4-1.9-3.1c-1.7-0.8-3.1-2.7-4.6-4c-4-3.3-5-8.4-6.1-13.5
			c-0.2-1-0.4-2.1-0.6-3.1c-0.9,0.2-0.9,1.3-1.5,1.7c-0.6,0.5-1.3,0.5-1.9,0c-0.5-0.4-0.7-1.2-0.5-1.9c0.3-1,0.6-2.1,1.2-3
			c2.5-4.4,3.1-9.5,3.8-14.5c0.1-0.4,0.2-1-0.5-1.5c-1.3,2.6-2.6,5.2-3.9,7.8c-0.5,0.9-1,1.7-2,1.4c-1.8-0.7-3.2-2.6-5.4-2
			c-0.7,0.2-0.9-1.2-0.7-2.2c0.6-2.9-0.4-4.8-2.5-6.2c-5.6-3.9-7.8-10-8.1-17.4c-0.1-2.7,0.5-5.5-2.6-6.7c-1.2-0.5-1-2.1-0.5-3.4
			c0.7-2,0.7-4.1-0.7-5.5c-4.4-4.4-3.4-10.1-2.9-15.7c0.3-2.4,1.1-4.7,1.8-7.7c-1.7,1.7-2.1,3.6-2.9,5.1c-1.1,2-2.2,2.2-3.7,0.9
			c-2.8-2.3-4.2-5.6-4.5-9.5c-0.2-2.5-0.3-5.1,0.3-7.7c0.2-0.9,0.3-2.1,0.1-2.9c-1.8-6.4-0.3-12.5,1.1-18.6c0.2-0.7,0.8-1.6-0.1-2.1
			C7.1,168,7,165,7.6,161.5c1-5.8,3.2-11,5.2-16.4c0.2-0.5,0.3-1.1,0.5-1.7c0.9-0.8,1.3-1.8,1.4-3.5c-1.3,0.9-1.7,2.2-2,3.5
			c-0.7,1.5-1.4,3.1-2.2,4.6c-0.5,0.9-1,2-2.1,1.7c-1.1-0.3-1.7-1.2-2-2.4c-0.7-2.4-0.3-4.9,0.1-7.3c0.8-4.6,2.3-8.9,3.8-13.2
			c0.4-1.1,0.5-2.1,0-3.3c-0.8-2.1,0.2-4,1.1-5.8c5.2-9.6,9.6-19.7,13.8-29.9c1.1-2.6,2.2-5.1,2.7-8c0.5-0.5,0.5-1.2,0.5-1.8
			c0.1-0.2,0.2-0.5,0.4-0.7c0,0-0.1-0.1-0.2-0.2c-0.1,0.3-0.2,0.5-0.3,0.8c-0.6,0.4-0.5,1.1-0.6,1.7c-2.4,2.8-3.4,6.7-5.3,9.9
			c-1.1,2.1-2,4.3-3.1,6.4c-0.6,1-1,2.9-2.6,1.7c-1.4-1-0.8-2.3-0.2-3.6c3.1-6.5,6.2-12.9,9.3-19.4c0.8-1.6,1.6-3.3,2.4-4.9
			c0.6-1.1,1.1-2.7,2.3-2.3c1.2,0.4,2.1,1.6,2.3,3.2c0,0.4,0.1,0.8,0.1,1.5c1.9-2.4,2.8-5.3,4-7.9c2.5-5.5,5.5-10.7,7.4-16.5
			c0.2-0.5,0.5-1,0.8-1.5c0.7-1.2,1.8-1.8,2.8-1c1,0.8,1.2,2.1,0.6,3.4c-1.1,2.5-2.3,5-3.5,7.6c-1.8,4-2.9,8.3-3.8,12.9
			c1.4-3,2.8-6,4.2-9c3.8-8.1,7.6-16.3,12.5-23.6c1.2-1.7,2.7-2.8,4.2-4c2.8-2.2,5.2-5.1,7.6-7.9c2.1-2.3,4-4.7,6.4-6.6
			c3.9-3,7.9-4.8,12.4-1.6c0.8,0.6,1.4,0.4,2-0.3c2.2-2.3,4.8-2.8,7.6-2.6c2.3,0.2,4.8-0.5,6.5,2.2c0.5,0.8,1,0.2,1.4-0.4
			c0.5-0.8,0.8-1.8,1.3-2.5c0.6-0.9,1.2-2.3,2.4-1.5c1.2,0.8,0.9,2.2,0.3,3.4c-0.7,1.5-1.3,3-2.1,4.4c-0.7,1.5-0.7,3,0.2,4.8
			c1.6-3.2,3.2-6.2,4.7-9.1c0.5-0.9,1.1-1.6,2.1-1c0.9,0.6,1.2,1.6,0.8,2.8c-0.3,0.9-0.7,1.8-1.1,2.7c-0.4,1.2-1.2,2.3-1.2,4.3
			c1.8-2.6,2.6-5.1,3.3-7.7c0.8-2.6,6.4-5.8,8.5-4.9c1.7,0.7,0.6,2.3,0.7,3.7c3.8-0.5,4.5,3.1,5.7,6.3c1.1-2.3,2.1-4.4,3.1-6.5
			c0.4-0.8,0.7-1.6,1.6-1.8c1.5-0.3,6.7,4.2,6.7,6c0,1.4,0.5,2.5,1.2,4c0.6-1.1,1.1-2,1.6-3c0.6-1.1,1.3-2,2.4-1.2
			c1.4,1,2.3,0.5,3.3-0.7c0.5-0.6,1.2-1.1,1.9-1.5c2.5-1.4,4.5,0.1,4.6,3.4c0,0.8,0,1.6,0,2.4c-0.1,0.1-0.2,0.2-0.2,0.2
			c0,0,0.1,0,0.1,0c0-0.1,0.1-0.1,0.1-0.2c2.2-1.2,4.2-2.9,6.7-3.3c0.8-0.1,1.7-0.3,2.5-0.2c5.1,0.4,6.2,2.5,3.9,7.7
			c-4.6,10.4-9.3,20.8-13.9,31.2c-0.5,1-0.8,2.2-1.2,3.2c-0.2,0.4-0.3,0.8-0.5,1.2c-0.1,0.1-0.1,0.2-0.2,0.4
			c0.1-0.1,0.2-0.2,0.3-0.3c0.2-0.4,0.4-0.8,0.6-1.1c1.6-1.1,2.1-3.2,3.3-4.7c6.2-7.4,10.3-16.7,14.6-25.6c0.7-1.5,1.4-2.7,2.9-1.6
			c1.4,1,0.3,2.2-0.1,3.4c-0.9,2.6-2.5,4.9-3.2,7.6c-0.1,0-0.1,0.1-0.2,0.1c0,0,0,0.1,0,0.2c0.1-0.1,0.1-0.2,0.2-0.3
			c3-0.4,5.4-1.6,5.9-5.7c0.1-0.8,0.4-1.5,0.6-2.3c1.3-4.6,1.4-4.5,4.9-2.2c2.7,1.8,5.4,3.4,7,6.9c0.3,0.6,0.7,0.8,1.2,0.9
			c1.7,0.3,1.7,1.6,1.1,3.1c-0.4,1.1-0.7,2.1-0.3,3.4c0.5,1.7,1.4,1.5,2.3,0.7c0.4-0.3,0.6-1,0.8-1.5c2.1-3.8,3.9-3.7,6.1,0.3
			c1.1,2.1,1.3,4.6,2.6,6.7c0.7,1.1,1.3,1.8,2.3,2.3c1.4,0.7,3.4,0.9,3.4,3.7c0,0.6,0.7,0.7,1.2,0.9c0.5,0.2,1,0.2,1.5,0.4
			c4.7,2,5,2.5,2.6,7.7c-7.7,17-15.5,33.9-23.2,50.9c-0.6,1.3-1,2.7-1.6,4c-0.1,0.1-0.1,0.3-0.2,0.4c0.1-0.1,0.2-0.1,0.3-0.2
			c3.1-1.9,4-5.7,5.6-8.8c6.7-13.9,13.3-27.9,20-41.9c2.1-4.5,3.1-4.6,6.4-1c1.2,1.4,2.2,3,3,4.8c0.8,1.8,1,3.9,3.7,3.7
			c1.7-0.1,3,2.6,3.8,4.7c0.7,2.2,1.3,4.5,1.2,6.9c-0.1,1.5,0,2.9,1.2,4c1.4,1.2,0.3,2.5-0.2,3.7c-1.1,2.4-2.5,4.5-3,7.8
			c1.6-0.9,1.7-2.6,2.4-3.7c0.7-1,1.4-2.3,2.6-1.6c1.3,0.8,0.9,2.2,0.2,3.3c-0.8,1.5-0.3,2,1,2.4c5.5,1.9,5.9,3.1,3.4,9.2
			c-5.5,13.5-12.3,26.1-18.8,38.9c-5.4,10.6-11.2,20.9-16.3,31.7c-2.8,5.9-4.7,12.4-6.3,19c-0.1,0.2-0.2,0.5-0.3,0.7
			c0,0,0.1,0.1,0.2,0.2c0.1-0.3,0.2-0.5,0.3-0.8c4.9-8,9.8-16,13.8-24.7c9.8-21.6,19.4-43.4,29.1-65.1c0.2-0.4,0.4-0.9,0.6-1.3
			c0.6-0.9,1.2-2.2,2.4-1.5c1.1,0.7,0.9,2,0.5,3.2c-1.6,5-3.2,10-4.8,15c-0.3,1-0.6,2-0.4,3.4c1.1-2.1,2.4-4,3.4-6.2
			c9.1-20.8,19-41,30.1-60.3c6.2-10.7,12.9-21,20.6-30.2c6.9-8.2,14.3-15.6,24.2-18.2c1.2-0.3,2.5-0.6,3.7-0.5
			c4.2,0.3,7.3-3.6,11.2-4.3c3.4-0.6,6.5-0.2,9.5,1.4c1.9,0.9,2.2,2.5,1.3,4.6c-1,2.1-1.8,4.3-2.9,6.2c-1.7,2.9-1.9,5.9-0.8,9.3
			c1.2-0.7,1.6-2.2,2.3-3.3c2.6-4.6,5.1-9.3,7.7-13.9c0.7-1.2,1.2-3.4,2.9-2.2c1.6,1.1,0.5,2.7,0,4.2c-0.1,0.4-0.2,0.7-0.3,1.1
			c-0.4,0.3-0.5,0.7-0.4,1.2c-0.1,0.1-0.2,0.2-0.2,0.3c0.1-0.1,0.2-0.2,0.2-0.3C356.7,21.9,356.8,21.5,356.9,21z M348.3,444.1
			c0.2-0.2,0.3-0.4,0.5-0.6c0.2-0.2,0.3-0.4,0.5-0.6c0.1-0.1,0.1-0.2,0.2-0.3c-0.1,0.1-0.2,0.2-0.3,0.3c-0.2,0.2-0.3,0.4-0.5,0.6
			C348.6,443.7,348.4,443.9,348.3,444.1c-0.2,0.1-0.4,0.3-0.6,0.5c-0.1,0.2-0.3,0.4-0.4,0.6c0.1,0.1,0.2,0.1,0.3,0.2
			c0.1-0.3,0.1-0.5,0.2-0.8C348,444.5,348.1,444.3,348.3,444.1z M197.6,414.3c0.1,0,0.1-0.1,0.2-0.1c0,0,0-0.1,0-0.2
			C197.7,414.1,197.7,414.2,197.6,414.3c-0.2,0.2-0.3,0.4-0.5,0.6c-3.6,4.6-7.4,9.1-10.8,14c-1.8,2.5-2.4,5.8-2.7,9.1
			c-0.1,1.2,0.1,2.2,1.3,2.5c1,0.2,1.3-0.7,1.5-1.5c1.6-4.8,4-9.1,6-13.7c1.5-3.5,3.9-6.4,4.7-10.3
			C197.3,414.7,197.4,414.5,197.6,414.3z M237.3,282.2c0-0.1,0.1-0.1,0.1-0.2C237.3,282.1,237.3,282.1,237.3,282.2
			c0,0.1-0.1,0.1-0.1,0.2C237.2,282.3,237.2,282.2,237.3,282.2z M240.3,204.8c-0.2,0.2-0.4,0.4-0.5,0.5c-2.9,2.9-5.6,6.1-7.2,10.2
			c-6.8,17.5-13.4,35.1-20,52.8c-1.1,2.9-2.9,5.6-3,9c-0.1,0.1-0.1,0.2-0.2,0.3c0.1-0.1,0.2-0.2,0.3-0.3c0.8-0.4,1-1.3,1.3-2.1
			c2-4.5,4.1-9.1,6-13.7c7.1-17,14.2-34,21.2-51c0.7-1.7,1.5-3.3,1.6-5.2C240,205.2,240.1,205,240.3,204.8c0-0.1,0.1-0.2,0.1-0.3
			C240.3,204.7,240.3,204.7,240.3,204.8z M417.1,256c0-0.1,0.1-0.2,0.1-0.2C417.1,255.8,417.1,255.9,417.1,256
			c0,0.1-0.1,0.1-0.1,0.1c0,0,0,0.1,0,0.1C416.9,256.2,417,256.1,417.1,256z M211.7,119.7c0,0.1-0.1,0.2-0.1,0.2
			C211.6,119.9,211.6,119.8,211.7,119.7c0-0.1,0.1-0.1,0.2-0.1c0,0,0-0.1,0-0.2C211.8,119.5,211.7,119.6,211.7,119.7z M215.7,231
			c0.2-0.2,0.3-0.4,0.5-0.6c0.4-0.2,0.5-0.7,0.5-1.2c2.2-0.7,2.5-3,3.2-5c-1.4,1.4-2.7,2.8-3.2,5c-0.4,0.3-0.5,0.7-0.5,1.2
			C216,230.6,215.8,230.8,215.7,231c0,0.1-0.1,0.1-0.2,0.1c0,0,0,0.1,0,0.1C215.5,231.2,215.6,231.1,215.7,231z M251.8,217.9
			c0.2-0.2,0.3-0.4,0.5-0.6c0.2-0.2,0.6-0.3,0.2-0.7c-0.1,0.3-0.1,0.5-0.2,0.8C252.2,217.5,252,217.7,251.8,217.9
			c0,0.1-0.1,0.1-0.2,0.1c0,0,0,0.1,0,0.2C251.7,218.1,251.7,218,251.8,217.9z M98.1,53c0.4-0.2,0.5-0.7,0.5-1.2
			c0.1-0.1,0.2-0.2,0.2-0.3c0,0-0.1,0-0.1,0.1c0,0.1,0,0.2-0.1,0.2C98.2,52.1,98.1,52.6,98.1,53c0,0.1-0.1,0.1-0.2,0.1
			c0,0,0,0.1,0,0.2C98,53.2,98.1,53.1,98.1,53z M241.3,223.8c0.4-0.2,0.5-0.6,0.6-1.1c0.2-0.3,0.6-0.5,0.7-0.8
			c12.5-22.5,26.1-44.2,37.7-67.4c1.8-3.6,4.2-6.8,5.3-11c0.2-0.2,0.3-0.4,0.5-0.6c0.4-0.3,0.5-0.7,0.5-1.2c0.1-0.1,0.2-0.2,0.2-0.2
			c0,0-0.1,0-0.1,0c0,0.1-0.1,0.1-0.1,0.2c-0.4,0.2-0.5,0.6-0.5,1.2c-0.2,0.2-0.3,0.4-0.5,0.6c-0.4,0.4-1,0.8-1.3,1.3
			c-8.7,12.3-17.5,24.4-26.5,36.4c-1.8,2.4-3.9,4.4-4.9,7.7c-2.1,6.7-4.6,13.2-6.7,19.8c-1.5,4.6-3.6,8.9-4.3,13.9
			C241.3,222.9,241.3,223.4,241.3,223.8c0,0.1-0.1,0.1-0.2,0.1c0,0,0,0.1,0,0.2C241.1,224,241.2,223.9,241.3,223.8z M58.5,211.4
			c-0.2,0.2-0.7,0.3-0.2,0.8C58.3,211.9,58.4,211.6,58.5,211.4c0.1,0,0.1,0,0.2-0.1c0,0,0-0.1,0-0.2
			C58.6,211.2,58.5,211.3,58.5,211.4z M67,127.4c0.4-0.2,0.5-0.7,0.5-1.2c0.7,0,1-0.4,1-1.2c1.8-1.7,3.3-3.7,3.5-6.6
			c0.1-0.1,0.2-0.2,0.2-0.3c0,0-0.1,0-0.1,0c0,0.1-0.1,0.2-0.1,0.2c-1.7,1.8-3,3.8-3.5,6.5c-0.7,0-0.9,0.5-1,1.2
			C67.1,126.5,67,126.9,67,127.4c-0.1,0.1-0.1,0.2-0.2,0.3c0,0,0.1,0,0.1,0C67,127.6,67,127.5,67,127.4z M303.1,224.5
			c-0.1,0.2-0.3,0.4-0.4,0.7c0.1,0.1,0.1,0.1,0.2,0.2C302.9,225,303,224.7,303.1,224.5c0.1-0.1,0.2-0.2,0.2-0.3c-0.1,0-0.1,0-0.2,0
			C303.1,224.3,303.1,224.4,303.1,224.5z M24.8,128.1c-0.2,0.2-0.7,0.4-0.2,0.8C24.7,128.6,24.7,128.3,24.8,128.1
			c0.2-0.2,0.6-0.4,0.2-0.8C24.9,127.5,24.9,127.8,24.8,128.1z M26.3,123.8c0.2-0.2,0.7-0.3,0.2-0.8
			C26.4,123.3,26.4,123.6,26.3,123.8c-0.2,0.2-0.6,0.4-0.2,0.8C26.2,124.4,26.2,124.1,26.3,123.8z M192.6,232.8
			c0.2-0.2,0.7-0.4,0.2-0.8C192.7,232.2,192.6,232.5,192.6,232.8c0,0.1-0.1,0.1-0.1,0.2C192.5,232.9,192.5,232.8,192.6,232.8z
			 M51.4,241.1c-0.1,0.2-0.3,0.4-0.4,0.6c0.1,0.1,0.1,0.1,0.2,0.2C51.3,241.7,51.4,241.4,51.4,241.1c0.2-0.2,0.4-0.4,0.5-0.6
			c2.4-3,4.6-6.2,6.1-10c4.5-10.7,9.4-21.2,14.7-31.4c5.1-9.8,10.6-19.4,15.4-29.5c6.8-14.5,13.8-28.9,20.7-43.4
			c2.5-5.3,5.4-10.4,7.4-16.1c0.8-0.7,1.3-1.5,1.2-2.9c-1.1,0.8-1.3,1.8-1.3,2.9c-1.1,0.2-1.3,1.4-1.8,2.3c-1.5,2.5-2.8,5.2-4.2,7.7
			c-9.5,17.5-20.3,33.9-28,52.7c-7.7,19-17.7,36.6-25.6,55.5c-1.6,4-3.8,7.7-4.7,12.1C51.7,240.7,51.6,240.9,51.4,241.1z
			 M211.1,243.5c0.1-0.2,0.3-0.4,0.4-0.6c-0.1-0.1-0.1-0.1-0.2-0.2C211.3,243,211.2,243.2,211.1,243.5c-0.2,0.2-0.4,0.4-0.5,0.6
			c-2.8,2.6-4.7,6.1-7.1,9.1c-1.7,2.2-3.3,4.4-4.3,7.2c-2.4,7.3-4.9,14.5-7.4,21.7c-1.2,3.4-2.3,6.9-3.4,10.3
			c0.2,0.1,0.4,0.2,0.6,0.3c0.6-1.2,1.3-2.5,1.9-3.7c4.7-10.4,9.6-20.8,14.2-31.4c1.9-4.5,4.5-8.5,5.6-13.5
			C210.8,243.9,211,243.7,211.1,243.5z M127.8,116.1c0.2-0.2,0.6-0.3,0.2-0.7C127.9,115.6,127.8,115.9,127.8,116.1
			c-0.2,0.2-0.3,0.4-0.5,0.6c-3.3,4.7-5.7,10.2-8.2,15.5c-6,12.3-11.8,24.7-17.4,37.3c-2.3,5.1-4,10.6-5,16.3
			c-0.1,0.2-0.3,0.4-0.4,0.6c0,0,0.1,0.1,0.2,0.2c0.1-0.3,0.1-0.5,0.2-0.8c0.6-0.3,0.8-0.9,1.1-1.5c3.2-7.3,6.5-14.5,9.7-21.7
			c6-13.4,11.9-26.7,17.9-40.1c0.8-1.8,2-3.5,2-5.7C127.4,116.5,127.6,116.3,127.8,116.1z M101.2,46.5c-0.2,0.4-0.3,0.8-0.5,1.2
			c-0.8,0.6-1.3,1.5-1.2,2.9c1.1-0.8,1.2-1.8,1.2-2.9C101.1,47.4,101.1,47,101.2,46.5c0-0.1,0.1-0.2,0.1-0.2
			C101.2,46.4,101.2,46.4,101.2,46.5z M305.6,266.1c0.4-0.2,0.5-0.7,0.5-1.1c0.9-0.6,1.3-1.8,1.8-2.8c9.5-17,19.2-33.8,29.1-50.5
			c6.6-11.3,13.6-22.2,18.4-35c3.4-9.2,7.6-18.1,11.4-27.1c1.9-4.5,4.3-8.8,5.7-13.5c3.9-12.9,7.7-25.7,11.5-38.6
			c0.2-0.6,0.6-1.2-0.1-2c-0.5,1.2-1,2.2-1.4,3.3c-4.7,10.6-9.3,21.3-14.2,31.8c-9.9,21.3-19.9,42.6-29.9,63.9
			c-8.4,17.7-17,35.2-25.5,52.9c-2.7,5.7-5.2,11.5-6.9,17.7C305.6,265.2,305.6,265.6,305.6,266.1c-0.1,0.1-0.1,0.2-0.2,0.3
			c0,0,0.1,0,0.1,0C305.5,266.3,305.5,266.2,305.6,266.1z M174,45.9c-0.4,0-0.8,0.1-1,0.6c-2.2,1-3.8,2.7-4.1,5.7
			c1.6-1.7,3.3-3.3,4.1-5.7C173.4,46.5,173.7,46.4,174,45.9c0-0.1,0.1-0.2,0.1-0.2C174,45.8,174,45.8,174,45.9z M390.9,271.5
			c0.2-0.2,0.7-0.3,0.2-0.8C391.1,271,391,271.2,390.9,271.5c-0.2,0.2-0.3,0.4-0.5,0.6c-0.6,0.3-0.8,0.9-1.1,1.5
			c-4.5,8.2-9.1,16.3-13.5,24.6c-8.7,16.4-16.9,33.1-23.5,50.8c-1.1,2.9-2.4,5.8-3.1,9.6c0.6-0.8,0.9-1.1,1-1.4
			c4.4-9.1,8.7-18.3,13.1-27.4c7.4-15.5,14.9-30.9,22.2-46.5c1.7-3.7,4.1-7,4.9-11.3C390.6,271.9,390.8,271.7,390.9,271.5z
			 M372.9,111.9c0.4-0.2,0.5-0.7,0.5-1.2c1.2-1.3,1.9-2.8,2-4.8c0.5-0.2,0.5-0.7,0.5-1.2c0.1-0.1,0.2-0.2,0.2-0.3c0,0-0.1,0-0.1,0
			c0,0.1-0.1,0.2-0.1,0.2c-0.4,0.2-0.5,0.7-0.5,1.2c-1.2,1.3-1.9,2.9-2,4.8C372.9,111,372.9,111.5,372.9,111.9
			c-0.1,0.1-0.1,0.2-0.2,0.3c0,0,0.1,0,0.1,0C372.8,112.1,372.8,112,372.9,111.9z M369.8,64.3c0.2-0.2,0.7-0.3,0.2-0.8
			C370,63.8,369.9,64.1,369.8,64.3c-0.1,0.1-0.2,0.2-0.2,0.3c0.1,0,0.1,0,0.2,0C369.8,64.5,369.8,64.4,369.8,64.3z M89.1,111.9
			c0.4-0.2,0.5-0.7,0.5-1.2c1.8-1.5,1.7-4,2.5-6c1.3-3.5,2.3-7.2,3.6-11.4c-1.6,1.3-1.7,2.7-2,3.8c-1.3,4.6-3.4,8.8-4.1,13.6
			C89.1,111,89.1,111.5,89.1,111.9c-0.2,0.2-0.6,0.4-0.2,0.8C89,112.5,89,112.2,89.1,111.9z M172.5,274.5c-0.4,0.2-0.5,0.7-0.5,1.2
			c-0.4,0.2-0.5,0.7-0.5,1.2c-0.2,0.2-0.7,0.4-0.2,0.8c0.1-0.3,0.1-0.6,0.2-0.8c0.5-0.2,0.5-0.7,0.5-1.2
			C172.4,275.4,172.5,274.9,172.5,274.5c0.5-0.2,0.5-0.7,0.5-1.2c1.4-1.4,2-3.4,2.3-5.5c-1.2,1.6-2.1,3.3-2.3,5.5
			C172.5,273.5,172.5,274,172.5,274.5z M79,196.5c0.4-0.2,0.5-0.7,0.5-1.2c0.1-0.1,0.2-0.2,0.2-0.3c0,0-0.1,0-0.1,0.1
			c0,0.1-0.1,0.2-0.1,0.2C79.1,195.5,79.1,196,79,196.5c0,0.1-0.1,0.2-0.1,0.3C79,196.6,79,196.6,79,196.5z M434.6,194.1
			c0.4-0.2,0.5-0.7,0.5-1.2c2.1-1.3,3.2-3.7,4.4-5.9c8.8-17.2,17.5-34.4,26-51.7c1.7-3.4,2.2-7.6,3.3-11.5c-1.4,1.4-2.2,3.1-3,4.8
			c-7.6,15.6-15.2,31.2-22.6,46.9c-2.7,5.8-5.9,11.3-8,17.4C434.7,193.2,434.6,193.6,434.6,194.1c-0.1,0.1-0.1,0.2-0.2,0.3
			c0,0,0.1,0,0.1,0C434.6,194.3,434.6,194.2,434.6,194.1z M137.3,66.1c-0.2,0.2-0.7,0.3-0.2,0.8C137.2,66.6,137.2,66.4,137.3,66.1
			c0-0.1,0.1-0.1,0.2-0.1c0,0,0-0.1,0-0.2C137.5,66,137.4,66.1,137.3,66.1z M28.3,107.8c0.2-0.2,0.6-0.3,0.2-0.7
			C28.4,107.3,28.4,107.5,28.3,107.8c-0.2,0.2-0.6,0.4-0.2,0.8C28.2,108.3,28.3,108.1,28.3,107.8z M438.7,284.6
			c-0.2,0.2-0.7,0.3-0.2,0.8C438.5,285.1,438.6,284.8,438.7,284.6c0.1-0.1,0.1-0.2,0.2-0.3c0,0-0.1,0-0.1,0.1
			C438.7,284.4,438.7,284.5,438.7,284.6z M149.4,67.9c0.4-0.2,0.5-0.7,0.5-1.2c0.2-0.2,0.7-0.3,0.2-0.8c-0.1,0.3-0.1,0.5-0.2,0.8
			C149.4,67,149.4,67.4,149.4,67.9c0,0.1-0.1,0.1-0.2,0.1c0,0,0,0.1,0,0.2C149.2,68.1,149.3,68,149.4,67.9z M118.2,106
			c0.1-0.2,0.3-0.4,0.4-0.7c-0.1-0.1-0.1-0.1-0.2-0.2C118.4,105.5,118.3,105.7,118.2,106c-0.1,0.1-0.2,0.2-0.2,0.3
			c0.1,0,0.1,0,0.2,0C118.2,106.2,118.2,106.1,118.2,106z M175.5,292.9c-0.4,0.2-0.5,0.7-0.5,1.2c-0.9,0.1-1,0.9-1.1,1.7
			c-2.1,0.9-2.7,3.4-4,5.1c-14.2,19.4-23.3,42.4-33.2,64.8c-0.8,1.8-1.4,3.8-1.2,5.9c1-1.7,1.6-3.5,2.4-5.2
			c8.8-21,19.7-40.4,30.4-60c1.9-3.5,4.1-6.7,5.6-10.5c0.6-0.4,1-1,1-1.8C175.4,293.9,175.5,293.4,175.5,292.9
			c0.1-0.1,0.1-0.2,0.2-0.3c0,0-0.1,0-0.1,0C175.5,292.8,175.5,292.8,175.5,292.9z M445.7,184.6c0.1-0.2,0.3-0.4,0.4-0.7
			c-0.1-0.1-0.1-0.1-0.2-0.2C445.8,184,445.8,184.3,445.7,184.6c-0.2,0.2-0.4,0.4-0.5,0.6c-1.8,1.6-3.1,3.9-4.3,6.1
			c-3.6,7-7.2,14-10.8,21c-13.6,26.5-27.2,53.1-40.7,79.6c-0.6,1.2-1.7,2.3-1.5,4c-0.3,0-0.6,0.1-0.7,0.6c0,0.1,0.2,0.3,0.3,0.3
			c0.4-0.1,0.4-0.5,0.5-0.8c1.2-1,1.7-2.6,2.5-4c9.7-16.9,19.5-33.7,28.5-51.2c7.8-15.1,14.8-30.7,22.2-46.1
			c1.5-3.1,3.3-5.9,4.1-9.4C445.4,185,445.5,184.8,445.7,184.6z M72.5,57.2c-0.4,0.3-0.5,0.7-0.5,1.2c-0.2,0.2-0.6,0.3-0.2,0.7
			c0.1-0.3,0.1-0.5,0.2-0.8C72.4,58.1,72.5,57.7,72.5,57.2c0-0.1,0.1-0.1,0.2-0.1c0,0,0-0.1,0-0.2C72.7,57,72.6,57.1,72.5,57.2z
			 M75.5,104.2c-0.4,0.2-0.5,0.7-0.5,1.2c-1,0.1-1,0.9-1,1.8c-1.6,0.8-2.1,2.4-2.2,4.3c0.9-1.3,2-2.5,2.3-4.3c0.6-0.4,1-0.9,1-1.8
			C75.5,105.2,75.5,104.7,75.5,104.2c0.2-0.2,0.3-0.4,0.5-0.6c0.4-0.2,0.5-0.7,0.5-1.2c0.1,0,0.1,0,0.2-0.1c0,0,0-0.1,0-0.2
			c-0.1,0.1-0.1,0.2-0.2,0.3c-0.4,0.2-0.5,0.7-0.5,1.2C75.9,103.8,75.7,104,75.5,104.2z M138.3,299.5c0.2-0.2,0.7-0.4,0.2-0.8
			C138.4,298.9,138.4,299.2,138.3,299.5c-0.1,0.1-0.2,0.2-0.2,0.3c0.1,0,0.1,0,0.2,0C138.3,299.6,138.3,299.5,138.3,299.5z
			 M166.9,298.9c-0.1,0.2-0.3,0.4-0.4,0.7c0.1,0.1,0.1,0.1,0.2,0.2C166.8,299.4,166.9,299.1,166.9,298.9c0.2-0.2,0.4-0.4,0.5-0.6
			c2.6-2.7,4.5-6.1,6.5-9.3c5.9-9.3,13.3-17.2,17.7-27.9c4.4-10.8,9.6-21.1,13.9-31.9c5.8-14.8,11.1-29.8,16.5-44.8
			c1.7-4.8,3.8-9.4,4.7-14.6c0.1-0.1,0.2-0.2,0.2-0.3c-0.1,0.1-0.2,0.2-0.3,0.3c-3.5,5.3-6.9,10.7-9.6,16.6
			c-8.8,19.1-17.3,38.4-25.9,57.7c-7.2,16.2-14.5,32.4-21.7,48.6c-0.8,1.8-2,3.5-2,5.7C167.3,298.4,167.1,298.6,166.9,298.9z
			 M184,317.3c-0.4,0.3-0.5,0.7-0.5,1.2c-0.4,0.2-0.5,0.7-0.5,1.2c-0.1,0-0.1,0-0.2,0.1c0,0,0,0.1,0,0.2c0.1-0.1,0.1-0.2,0.2-0.3
			c0.4-0.2,0.5-0.7,0.5-1.2C183.9,318.3,184,317.8,184,317.3c0-0.1,0.1-0.1,0.2-0.1c0,0,0-0.1,0-0.1
			C184.2,317.2,184.1,317.2,184,317.3z M112.7,319.7c-0.4,0.2-0.5,0.7-0.5,1.2c-0.1,0.1-0.2,0.2-0.2,0.3c0.1,0,0.1,0,0.2,0
			c0-0.1,0.1-0.2,0.1-0.2C112.6,320.6,112.7,320.2,112.7,319.7c0-0.1,0.1-0.1,0.2-0.1c0,0,0-0.1,0-0.2
			C112.8,319.5,112.8,319.6,112.7,319.7z M312.1,326.2c0.1-0.2,0.3-0.4,0.4-0.6c-0.1-0.1-0.1-0.1-0.2-0.2
			C312.2,325.7,312.2,326,312.1,326.2c-0.2,0.2-0.3,0.4-0.5,0.6c-2.1,2-3.2,5-4.6,7.6c-1.7,3.4-3.3,6.9-4.9,10.3
			c0.2,0.1,0.4,0.3,0.6,0.4c2.9-5.8,6.4-11.1,8.8-17.2c0.1-0.3,0.1-0.8,0.1-1.2C311.8,326.6,311.9,326.4,312.1,326.2z M81.5,37.5
			c0.4-0.2,0.5-0.7,0.5-1.2c0.1,0,0.1,0,0.2-0.1c0,0,0-0.1,0-0.1c-0.1,0.1-0.1,0.2-0.2,0.3C81.6,36.6,81.6,37.1,81.5,37.5
			c0,0.1-0.1,0.1-0.2,0.1c0,0,0,0.1,0,0.2C81.4,37.7,81.5,37.6,81.5,37.5z M177.5,331c-0.2,0.2-0.7,0.3-0.2,0.8
			C177.4,331.5,177.4,331.3,177.5,331c0.1-0.2,0.3-0.4,0.5-0.6c0.9-0.6,1.3-1.5,1.3-2.9c-1.1,0.8-1.3,1.8-1.2,2.9
			C177.8,330.6,177.7,330.8,177.5,331z M238.8,339.3c-0.4,0.2-0.5,0.7-0.5,1.2c-0.4,0-0.8,0.2-0.8,0.8c0,0.1,0.1,0.2,0.2,0.2
			c0.5,0,0.6-0.5,0.6-0.9C238.7,340.3,238.8,339.8,238.8,339.3c0.1-0.1,0.1-0.2,0.2-0.3c0,0-0.1,0-0.1,0
			C238.8,339.2,238.8,339.3,238.8,339.3z M301.5,346.5c-0.1,0.2-0.3,0.4-0.4,0.7c0.1,0.1,0.1,0.1,0.2,0.2
			C301.4,347,301.5,346.8,301.5,346.5c0.1,0,0.2,0,0.2-0.1c0,0,0-0.1,0-0.2C301.7,346.3,301.6,346.4,301.5,346.5z M87.1,96.5
			c-0.1,0.2-0.3,0.4-0.4,0.6c0.1,0.1,0.1,0.1,0.2,0.2C87,97,87,96.7,87.1,96.5c0.2-0.2,0.3-0.4,0.5-0.6c5.3-5.7,8-13.1,9.7-21.1
			c-1.6,2.8-3.2,5.7-4.5,8.7c-1.8,4.1-4.3,7.8-5.3,12.3C87.4,96.1,87.2,96.3,87.1,96.5z M136.8,95.9c-0.2,0.2-0.6,0.3-0.2,0.7
			C136.7,96.4,136.7,96.1,136.8,95.9c0-0.1,0.1-0.2,0.1-0.3C136.9,95.7,136.9,95.8,136.8,95.9z M266.4,356.6
			c0.4-0.2,0.5-0.7,0.5-1.2c0.1,0,0.1,0,0.2-0.1c0,0,0-0.1,0-0.2c-0.1,0.1-0.1,0.2-0.2,0.3C266.5,355.7,266.4,356.1,266.4,356.6
			c0,0.1-0.1,0.1-0.2,0.1c0,0,0,0.1,0,0.1C266.3,356.8,266.3,356.7,266.4,356.6z M145.9,356.6c-0.2,0.2-0.7,0.3-0.2,0.8
			C145.7,357.1,145.8,356.8,145.9,356.6c0.1-0.1,0.1-0.2,0.2-0.3c0,0-0.1,0-0.1,0.1C145.9,356.4,145.9,356.5,145.9,356.6z
			 M265.4,358.4c-0.2,0.2-0.6,0.3-0.2,0.7C265.3,358.9,265.3,358.6,265.4,358.4c0-0.1,0.1-0.1,0.2-0.1c0,0,0-0.1,0-0.2
			C265.5,358.2,265.5,358.3,265.4,358.4z M357.5,368.3c-0.1,0.2-0.1,0.3-0.2,0.5c-0.1,0.3,0,0.4,0.2,0.2c0.1-0.1,0.1-0.3,0.2-0.5
			c0,0-0.1-0.1-0.4,0.6c-0.2,0.2-0.3,0.4-0.5,0.6c-0.3,0.3-0.7,0.6-0.9,0.9c-4.3,6.7-8.7,13.5-13,20.3c-1.9,3-1.1,6.1-0.5,10
			c3.6-7.6,7-14.5,10.2-21.5c1.5-3.2,3.5-6,4.2-9.7C357,369.5,357.1,369.3,357.5,368.3z M83.1,60.2c-0.4,0.2-0.5,0.7-0.5,1.2
			c-0.2,0.2-0.6,0.3-0.2,0.7c0.1-0.2,0.1-0.5,0.2-0.7C82.7,61,82.9,60.6,83.1,60.2c0.4-0.3,0.5-0.7,0.5-1.2c2.1-2.8,3.2-6.1,3.8-9.7
			c-1.3,3.2-3.1,6.1-3.7,9.7C83.1,59.2,83.1,59.7,83.1,60.2z M183.5,166.1c-0.4,0.2-0.5,0.6-0.6,1.1c-1.8,1.2-2.8,3.4-4,5.2
			c-9.5,14.7-19.9,28.4-27.5,44.8c-9.2,19.8-18.8,39.3-28.2,58.9c-6.8,14.2-13.5,28.4-20.5,42.6c-2.7,5.5-4.9,11.1-4.7,18.3
			c0.5-0.8,0.8-1.2,1-1.5c5-8.3,10.1-16.5,15.1-24.8c4-6.6,8.6-12.7,12-19.7c7.6-15.7,14.7-31.7,22.2-47.5
			c10.4-22.1,21-44.1,30.6-66.8c1.3-3.1,3.1-5.9,4-9.2C183.4,167.1,183.5,166.6,183.5,166.1c0.1,0,0.1,0,0.2-0.1c0,0,0-0.1,0-0.2
			C183.7,166,183.6,166,183.5,166.1z M210.6,94.7c0.4-0.2,0.5-0.6,0.6-1.1c1.7-0.6,2.2-2.6,3.3-3.9c3.4-4.3,5.7-9.6,9.9-13.1
			c0.2-0.2,0.3-0.7,0.2-1c-0.5-1.6-1.3-3.2-2.6-3.7c-1.4-0.5-1.3,1.6-2,2.5c-0.4,0.5-0.6,1.2-0.9,1.8c-2.6,5.8-5.8,11.3-8,17.4
			C210.7,93.8,210.6,94.2,210.6,94.7c-0.1,0-0.1,0-0.2,0.1c0,0,0,0.1,0,0.2C210.5,94.9,210.6,94.8,210.6,94.7z M461.3,92.9
			c-0.1,0.2-0.3,0.4-0.4,0.6c0.1,0.1,0.2,0.1,0.3,0.2C461.2,93.4,461.2,93.2,461.3,92.9c0.2-0.2,0.4-0.4,0.5-0.6
			c0.4-0.5,0.9-0.9,1.2-1.4c4.2-7.3,8.3-14.5,12.5-21.8c0.7-1.2,1.1-2.3-0.2-3.2c-1.5-1.1-1.7,0.7-2.2,1.5
			c-2.3,4.6-4.6,9.2-6.7,13.9c-1.6,3.6-3.9,6.9-4.7,11C461.6,92.5,461.4,92.7,461.3,92.9z M162.9,87.6c-0.2,0.2-0.7,0.3-0.2,0.8
			C162.8,88.1,162.9,87.8,162.9,87.6c0.1-0.1,0.1-0.2,0.2-0.3c0,0-0.1,0-0.1,0.1C163,87.4,163,87.5,162.9,87.6z M266.4,428
			c-0.2,0.2-0.6,0.3-0.2,0.7C266.3,428.5,266.3,428.3,266.4,428c0.2-0.3,0.7-0.4,0.2-0.8C266.5,427.5,266.5,427.8,266.4,428z
			 M306.6,430.4c0.4-0.2,0.5-0.7,0.5-1.1c0.5-0.6,1.2-1.1,1.6-1.8c8.2-12.7,16.5-25.4,24.6-38.2c2.3-3.6,5-6.8,6.4-11.3
			c3.4-11.5,7-22.9,10.4-34.3c0.8-2.7,1.5-5.4,2.2-8.1c-0.9,0.5-1.4,1.2-1.8,2.1c-4.5,9.3-8.9,18.6-13.3,27.9
			c-7.4,15.5-14.9,30.9-22.3,46.4c-2.7,5.7-5.7,11.1-7.9,17.2C306.6,429.5,306.6,429.9,306.6,430.4c-0.1,0.1-0.1,0.2-0.2,0.3
			c0,0,0.1,0,0.1,0C306.5,430.6,306.5,430.5,306.6,430.4z M129.8,73.3c0.1-0.2,0.3-0.4,0.4-0.7c0,0-0.1-0.1-0.2-0.2
			C129.9,72.7,129.8,73,129.8,73.3c-0.5,0.2-0.6,0.6-0.6,1.1c-2.6,1.8-3.9,5-5.5,7.8c-4.2,6.8-9.2,13-12.2,20.8
			c-1.5,4.1-3.4,7.9-4.8,12.1c-1.4,4.2-3.8,7.9-4.6,12.4c-0.1,0.1-0.2,0.2-0.2,0.3c0.1,0,0.1,0,0.1,0c0-0.1,0.1-0.2,0.1-0.2
			c0.3-0.3,0.7-0.6,0.9-1c5.6-9.9,11.1-19.9,16.2-30.2c3.5-7.1,7.3-14.1,10.1-21.8C129.7,74.2,129.8,73.8,129.8,73.3z M274.9,462.5
			c-0.1,0.2-0.3,0.4-0.4,0.6c0.1,0.1,0.2,0.1,0.3,0.2C274.8,463.1,274.9,462.8,274.9,462.5c0.2-0.1,0.3-0.3,0.4-0.5
			c-0.1-0.1-0.2-0.1-0.3-0.2C275,462,275,462.3,274.9,462.5z M25.8,146.5c0.1-0.2,0.3-0.4,0.4-0.6c-0.1-0.1-0.1-0.1-0.2-0.2
			C25.9,146,25.9,146.2,25.8,146.5c-0.1,0.1-0.2,0.2-0.2,0.3c0.1,0,0.1,0,0.2,0C25.8,146.7,25.8,146.6,25.8,146.5z M272.9,82.2
			c0.6-0.3,1-0.9,1-1.8c0.2-0.2,0.3-0.4,0.5-0.6c2.7,0.2,3.1,1,1.8,3.9c-4.8,11.3-9.3,22.7-15,33.5c-1,1.8-2.1,3.6-3.2,5.3
			c-0.7,1-1.8,1.1-2.7,0.4c-0.8-0.7-0.6-1.7-0.2-2.7c3.1-6.7,6.2-13.3,9.2-20c1.7-3.8,4.1-7.2,5-11.5c0.2-0.2,0.3-0.4,0.5-0.6
			c0.8-0.5,1.1-1.4,1-2.4c0.1-0.1,0.2-0.2,0.2-0.3c-0.1,0.1-0.2,0.2-0.3,0.3c-0.8,0.5-1.1,1.3-1,2.4c-0.2,0.2-0.3,0.4-0.5,0.6
			c-0.3,0.3-0.7,0.6-0.9,1c-2.9,5.9-6,11.8-8.8,17.9c-2.9,6.3-6.5,12.3-7.5,19.7c-0.9,0.6-1.1,1.7-1.5,2.7c-2.3,5.5-4.5,11-6.8,16.6
			c-10.1,24.8-21.3,48.9-30.5,74.3c-1.7,4.7-3.8,9.2-4.8,14.3c-0.1,0.2-0.3,0.4-0.4,0.6c0,0,0.1,0.1,0.2,0.2
			c0.1-0.3,0.1-0.5,0.2-0.8c0.3-0.4,0.8-0.8,1-1.2c5.8-10.4,11.6-20.7,17.3-31.2c1.6-3,3.3-5.9,4.4-9.3c4.8-14.9,9.9-29.8,14.7-44.7
			c2.2-7,4.7-13.9,6.3-21.2c1.4-1.9,2.7-1.1,3.8,0.3c1.5,1.9,2.2,4.2,2.1,6.8c0,1.8-0.3,3.6-0.4,5.4c1.2-1.9,2.2-3.8,3.1-5.8
			c7.7-18.1,15-36.6,23.7-54.1c5.8-11.6,10.3-24.2,18-34.5c1.8-2.4,3.1-5.2,4.9-7.5c4.2-5.7,8.3-11.4,14.5-14.2
			c0.8-0.4,1.5-1,1.8-2.3c-0.5,0-0.7,0-0.9,0.1C314.5,23.9,308,30,302,36.8c-10.7,12.1-19.1,26.4-27.2,41c-0.3,0.6-0.5,1.2-0.5,1.9
			c-0.2,0.2-0.3,0.4-0.5,0.6C273.2,80.7,272.9,81.3,272.9,82.2c-0.1,0.1-0.1,0.2-0.2,0.3c0,0,0.1,0,0.1,0
			C272.9,82.4,272.9,82.3,272.9,82.2z M310.1,40.5c0.3,0,0.6-0.1,0.7-0.5c0-0.1-0.2-0.3-0.3-0.3C310.1,39.8,310.1,40.2,310.1,40.5
			c-0.4,0.2-0.5,0.6-0.5,1.2c-0.7,0-1,0.5-1.4,1.1c-2.3,3.8-4.6,7.4-6.7,11.3c-1.2,2.2-2.3,4.5-2.4,7.3c-0.1,0.1-0.1,0.2-0.2,0.3
			c0.1-0.1,0.2-0.2,0.3-0.3c3.5-6.5,7-13.1,10.6-19.6C310,41.5,310.1,41,310.1,40.5z M344.2,342.9c0.4-0.3,0.9-0.6,0.7-1.3
			c0-0.1-0.2-0.2-0.2-0.1C344.1,341.7,344.3,342.4,344.2,342.9c-0.1,0.1-0.2,0.2-0.2,0.3c0.1,0,0.1,0,0.2,0
			C344.2,343.1,344.2,343,344.2,342.9z M64.5,99.5c-0.5,0.3-0.8,0.6-0.8,1.3c0,0.1,0.3,0.3,0.3,0.2C64.6,100.7,64.5,100,64.5,99.5
			c0.1,0,0.1,0,0.2-0.1c0,0,0-0.1,0-0.2C64.6,99.3,64.6,99.4,64.5,99.5z M158.9,140.5c0.4-0.3,0.8-0.6,0.8-1.3
			c0-0.1-0.3-0.2-0.3-0.2C158.8,139.4,159,140,158.9,140.5c0,0.1-0.1,0.1-0.2,0.1c0,0,0,0.1,0,0.2
			C158.8,140.7,158.8,140.6,158.9,140.5z M312.6,104.2c0.4-0.3,0.9-0.6,0.8-1.3c0-0.1-0.3-0.2-0.3-0.2
			C312.5,103.1,312.7,103.7,312.6,104.2c0,0.1-0.1,0.1-0.2,0.1c0,0,0,0.1,0,0.2C312.4,104.4,312.5,104.3,312.6,104.2z M366.3,189.9
			c0.4-0.3,0.8-0.6,0.8-1.3c0-0.1-0.3-0.2-0.3-0.2C366.2,188.8,366.4,189.4,366.3,189.9c0,0.1-0.1,0.1-0.2,0.1c0,0,0,0.1,0,0.2
			C366.2,190.1,366.3,190,366.3,189.9z M233.2,349.5c0.5-0.3,0.9-0.6,0.8-1.3c0-0.1-0.3-0.3-0.3-0.2
			C233.1,348.2,233.3,348.9,233.2,349.5c-0.2,0.2-0.3,0.4-0.5,0.6c-0.4,0.3-0.8,0.6-0.8,1.3c0,0.1,0.3,0.2,0.3,0.2
			c0.6-0.3,0.4-0.9,0.4-1.5C232.9,349.8,233.1,349.7,233.2,349.5z M352.3,291.7c-0.4,0.3-0.8,0.6-0.7,1.2c0,0.1,0.3,0.2,0.3,0.2
			C352.4,292.9,352.2,292.2,352.3,291.7c0.1-0.1,0.2-0.2,0.2-0.3c-0.1,0-0.1,0-0.2,0C352.3,291.5,352.3,291.6,352.3,291.7z
			 M350.3,200.1c0.7-0.3,1-0.9,1-1.8c2.2-3,4.1-6.3,4.7-10.3c-1.8,3.3-4,6.3-4.8,10.3C350.3,198.4,350.2,199.2,350.3,200.1
			c-0.1,0-0.1,0-0.2,0.1c0,0,0,0.1,0,0.2C350.1,200.2,350.2,200.1,350.3,200.1z M387.9,226.2c-0.4,0.3-0.8,0.6-0.7,1.3
			c0,0.1,0.3,0.3,0.3,0.2C388.1,227.4,387.9,226.8,387.9,226.2c0.2-0.2,0.4-0.4,0.5-0.6c1-0.6,1.3-1.8,1.8-2.8
			c7.9-14.7,15.8-29.4,23.7-44.1c7.1-13.2,14.4-26.2,20.7-39.9c6.7-14.5,13.6-28.8,20.6-43.1c4.4-9,8.2-18.3,10.6-28.4
			c0.2-0.9,1.1-2.3-0.1-2.8c-1-0.4-1.2,1.1-1.6,1.9c-6.6,13.7-13.1,27.4-19.6,41.1c-9.4,19.6-18.8,39.2-28.3,58.8
			c-7.5,15.7-15.1,31.3-22.5,47c-1.9,4-4.3,7.7-5.3,12.3C388.3,225.8,388.1,226,387.9,226.2z M67.5,106.6c-0.4,0.2-0.8,0.6-0.7,1.2
			c0,0.1,0.3,0.2,0.3,0.2C67.6,107.7,67.5,107.1,67.5,106.6c0.1-0.1,0.1-0.2,0.2-0.3c0,0-0.1,0-0.1,0
			C67.5,106.4,67.5,106.5,67.5,106.6z M94.6,206c0.4-0.3,0.8-0.6,0.7-1.2c0-0.1-0.3-0.2-0.3-0.2C94.5,204.9,94.7,205.5,94.6,206
			c-0.1,0.1-0.1,0.2-0.2,0.3c0,0,0.1,0,0.1,0C94.6,206.2,94.6,206.1,94.6,206z M80.5,280.4c0.4-0.3,0.8-0.6,0.8-1.3
			c0-0.1-0.3-0.2-0.3-0.2C80.4,279.2,80.6,279.9,80.5,280.4c0,0.1-0.1,0.1-0.2,0.1c0,0,0,0.1,0,0.2
			C80.4,280.6,80.5,280.5,80.5,280.4z M97.6,45.3c-0.5,0.3-0.9,0.6-0.8,1.3c0,0.1,0.3,0.3,0.3,0.2C97.7,46.5,97.6,45.9,97.6,45.3
			c0.1,0,0.1,0,0.2-0.1c0,0,0-0.1,0-0.2C97.8,45.1,97.7,45.2,97.6,45.3z M267.9,424.5c-0.5,0.3-0.9,0.6-0.8,1.3
			c0,0.1,0.3,0.3,0.3,0.2C268,425.6,267.9,425,267.9,424.5c0.1-0.1,0.1-0.2,0.2-0.3c0,0-0.1,0-0.1,0
			C267.9,424.3,267.9,424.4,267.9,424.5z M235.8,256.6c0.5-0.3,0.9-0.6,0.7-1.3c0-0.1-0.1-0.2-0.2-0.1
			C235.6,255.4,235.8,256,235.8,256.6c-0.1,0.1-0.2,0.2-0.2,0.3c0.1,0,0.1,0,0.2,0C235.7,256.8,235.7,256.7,235.8,256.6z
			 M452.7,116.1c-0.7,0.3-1,0.9-1,1.8c-4.7,6.4-7.4,14.1-10.2,21.7c1.8-3,3.5-6.1,4.9-9.4c1.7-4.1,4.4-7.7,5.4-12.3
			C452.7,117.8,452.7,117,452.7,116.1c0.1-0.1,0.1-0.2,0.2-0.3c0,0-0.1,0-0.1,0C452.8,116,452.8,116.1,452.7,116.1z M245.8,243.5
			c-0.5,0.3-0.9,0.6-0.7,1.3c0,0.1,0.2,0.2,0.2,0.1C245.9,244.7,245.7,244.1,245.8,243.5c0.1-0.1,0.1-0.2,0.2-0.3c0,0-0.1,0-0.1,0.1
			C245.8,243.3,245.8,243.4,245.8,243.5z M457.7,214.9c0.4-0.3,0.8-0.6,0.7-1.2c0-0.1-0.3-0.2-0.3-0.2
			C457.6,213.8,457.8,214.4,457.7,214.9c-0.1,0.1-0.1,0.2-0.2,0.3c0,0,0.1,0,0.1,0C457.7,215.1,457.7,215,457.7,214.9z M393.5,224.5
			c-0.5,0.3-0.9,0.6-0.8,1.3c0,0.1,0.3,0.3,0.3,0.2C393.6,225.7,393.4,225,393.5,224.5c0.1-0.1,0.1-0.2,0.2-0.3c0,0-0.1,0-0.1,0
			C393.5,224.3,393.5,224.4,393.5,224.5z M248.3,224.4c0.4-0.3,0.8-0.6,0.8-1.3c0-0.1-0.3-0.2-0.3-0.2
			C248.2,223.3,248.4,223.9,248.3,224.4c-0.1,0.1-0.1,0.2-0.2,0.3c0,0,0.1,0,0.1-0.1C248.3,224.6,248.3,224.5,248.3,224.4z
			 M55.4,103.6c-0.5,0.3-0.9,0.6-0.7,1.3c0,0.1,0.2,0.2,0.2,0.1C55.6,104.9,55.4,104.2,55.4,103.6c0.1-0.1,0.1-0.2,0.2-0.3
			c0,0-0.1,0-0.1,0C55.5,103.5,55.5,103.6,55.4,103.6z M250.3,220.3c-0.5,0.3-0.8,0.6-0.8,1.3c0,0.1,0.3,0.2,0.3,0.2
			C250.4,221.5,250.3,220.8,250.3,220.3c0.4,0,0.7-0.1,0.8-0.7c0-0.1-0.1-0.2-0.1-0.2C250.4,219.4,250.4,219.9,250.3,220.3z
			 M188.5,200.6c0.9-0.5,1.1-1.3,1-2.3c0.9-0.1,1.1-1.1,1.5-1.8c5.2-10.6,10.3-21.2,15.4-31.9c0.9-1.8,1.9-3.6,1.8-5.9
			c-0.7,0.1-0.8,0.7-1,1.1c-3.8,7.9-7.6,15.8-11.2,23.8c-2.2,4.9-4.9,9.4-6.6,14.6C188.7,198.8,188.5,199.6,188.5,200.6
			c-0.1,0.1-0.1,0.2-0.2,0.3c0,0,0.1,0,0.1,0C188.5,200.8,188.5,200.7,188.5,200.6z M158.9,254.8c0.9-0.5,1.1-1.3,1-2.4
			c0.1-0.1,0.2-0.2,0.2-0.3c-0.1,0-0.1,0-0.2,0c0,0.1-0.1,0.2-0.1,0.2C159,252.9,158.9,253.8,158.9,254.8c-0.1,0.1-0.1,0.2-0.2,0.3
			c0,0,0.1,0,0.1-0.1C158.9,255,158.9,254.9,158.9,254.8z M343.2,344.7c-0.9,0.5-1.1,1.3-1,2.4c-0.1,0.1-0.2,0.2-0.2,0.3
			c0.1,0,0.1,0,0.2,0c0-0.1,0.1-0.2,0.1-0.2C343.1,346.6,343.3,345.7,343.2,344.7c0.1-0.1,0.2-0.2,0.2-0.3c-0.1,0-0.1,0-0.2,0
			C343.3,344.5,343.3,344.6,343.2,344.7z M212.6,117.9c0.9,0,1.4-0.7,1.5-1.8c1-0.7,1.6-1.6,1.5-3c0.1,0,0.1,0,0.2-0.1
			c0,0,0-0.1,0-0.2c-0.1,0.1-0.1,0.2-0.2,0.3c-1,0.6-1.6,1.5-1.5,2.9C213.2,116.2,212.7,116.9,212.6,117.9c-0.1,0-0.1,0.1-0.2,0.1
			c0,0,0,0.1,0,0.2C212.5,118.1,212.6,118,212.6,117.9z M314.1,101.2c0.8-0.6,1.3-1.5,1.2-2.9C314.3,99.2,314.1,100.2,314.1,101.2
			c-0.1,0.1-0.1,0.2-0.2,0.3c0.1,0,0.1,0,0.1,0C314.1,101.4,314.1,101.3,314.1,101.2z M71,176.2c-0.8,0.6-1.3,1.5-1.2,2.9
			C70.8,178.3,71,177.3,71,176.2c0.1-0.1,0.2-0.2,0.2-0.3c-0.1,0-0.1,0-0.2,0C71.1,176.1,71,176.2,71,176.2z M167.9,175
			c1.1-0.8,1.5-2.1,1.5-3.5c0.1-0.1,0.2-0.2,0.2-0.3c-0.1,0.1-0.2,0.2-0.3,0.3C168.4,172.3,168,173.6,167.9,175
			c-0.1,0.1-0.1,0.2-0.2,0.3c0,0,0.1,0,0.1,0C167.9,175.2,167.9,175.1,167.9,175z M452.2,226.2c-1.1,0.8-1.5,2.1-1.5,3.6
			c-0.1,0.1-0.1,0.2-0.2,0.3c0.1-0.1,0.2-0.2,0.3-0.3C451.8,229,452.2,227.7,452.2,226.2c0.1-0.1,0.2-0.2,0.3-0.3
			c-0.1,0-0.1,0-0.2,0C452.3,226.1,452.2,226.2,452.2,226.2z M415.6,259c-1.1,0.8-1.5,2.1-1.5,3.6c-0.1,0.1-0.2,0.2-0.2,0.3
			c0,0,0.1,0,0.1,0c0-0.1,0.1-0.2,0.1-0.2C415.1,261.7,415.5,260.4,415.6,259c0.1-0.1,0.1-0.2,0.2-0.3c0,0-0.1,0-0.1,0
			C415.6,258.8,415.6,258.9,415.6,259z M248.8,236.9c-1.1,0.9-1.5,2.4-1.7,3.9C248.2,239.9,248.8,238.6,248.8,236.9
			c0.2-0.2,0.4-0.4,0.5-0.6c0.3-0.4,0.7-0.8,1-1.3c3.5-7.4,7.1-14.7,10.6-22.2c1.6-3.4,3-7,4.5-10.5c-0.2-0.1-0.4-0.2-0.6-0.4
			c-0.5,0.9-1.1,1.7-1.5,2.6c-2.9,6.2-5.9,12.4-8.6,18.7c-1.8,4.3-4.5,8.1-5.4,12.9C249.1,236.5,249,236.7,248.8,236.9z
			 M371.4,114.9c-1.2,0.9-1.5,2.4-1.6,3.9C370.6,117.7,371.4,116.6,371.4,114.9c0.1-0.1,0.1-0.2,0.2-0.3c0,0-0.1,0-0.1,0.1
			C371.4,114.8,371.4,114.9,371.4,114.9z M66,81c1.1-1,1.5-2.4,1.7-3.9C66.6,78.1,66,79.4,66,81c-0.1,0.1-0.2,0.2-0.3,0.3
			C65.8,81.2,65.9,81.1,66,81z M111.2,162.6c1.2-0.9,1.5-2.4,1.7-3.9C111.8,159.7,111.2,160.9,111.2,162.6c-0.1,0.1-0.1,0.2-0.2,0.3
			c0,0,0.1,0,0.1,0C111.2,162.7,111.2,162.6,111.2,162.6z M413.1,264.4c-1.2,0.9-1.5,2.3-1.7,3.8C412.4,267.2,413.1,266,413.1,264.4
			c0.1-0.1,0.1-0.2,0.2-0.3c0,0-0.1,0-0.1,0C413.1,264.2,413.1,264.3,413.1,264.4z M79.1,141.7c-1.2,1.1-1.8,2.6-1.9,5.1
			C78.2,144.8,79,143.5,79.1,141.7c0.2-0.2,0.6-0.3,0.2-0.8C79.2,141.2,79.1,141.5,79.1,141.7z M63,87.6c1.3-1.4,1.9-3.1,2.1-5.1
			C64.1,84,63,85.5,63,87.6c-0.1,0.1-0.2,0.2-0.3,0.3C62.8,87.8,62.9,87.7,63,87.6z M414.6,338.2c1.4-1.4,2-3.4,2.5-5.3
			c0.3-0.4,0.7-0.8,1-1.3c2.8-5.9,5.5-11.7,8.2-17.6c0.8-1.7,2-3.1,2-5.3c-0.8,0.9-1.6,1.9-2.2,3.1c-2.5,5.3-4.9,10.6-7.2,15.9
			c-0.7,1.6-1.8,3.1-1.8,5.1C415.3,334,414.9,336,414.6,338.2c-0.1,0.1-0.2,0.2-0.2,0.3c0.1,0,0.1,0,0.2,0
			C414.5,338.3,414.5,338.2,414.6,338.2z M255.3,364.3c1.6-1.3,2.3-3.2,2.5-5.3c0.1-0.1,0.2-0.2,0.2-0.3c-0.1,0-0.1,0-0.2,0
			c0,0.1-0.1,0.2-0.1,0.2C256.6,360.5,255.5,362.1,255.3,364.3c-0.1,0.1-0.1,0.2-0.2,0.3c0,0,0.1,0,0.1,0
			C255.3,364.5,255.3,364.4,255.3,364.3z M327.2,259c-1.2,1.3-2.2,2.8-2.2,4.9C325.9,262.4,327.2,261.1,327.2,259
			c0-0.1,0.1-0.1,0.2-0.1c0,0,0-0.1,0-0.1C327.3,258.8,327.2,258.9,327.2,259z M455.7,162.5c2-1.1,2.4-3.3,3-5.3
			c-0.2-0.1-0.4-0.2-0.5-0.4C457.4,158.8,456.6,160.7,455.7,162.5c-0.2,0.2-0.6,0.3-0.2,0.8C455.6,163.1,455.7,162.8,455.7,162.5z
			 M213.2,464.3c1.6-0.4,2.3-1.9,3.4-3.4C214,460.5,213.8,462.7,213.2,464.3c-0.1,0.1-0.2,0.2-0.2,0.3
			C213,464.5,213.1,464.4,213.2,464.3z M59.5,132.2c1.7-1,2.3-2.9,3-5.7C60.7,128.5,59.9,130.2,59.5,132.2c-0.2,0.2-0.7,0.4-0.2,0.8
			C59.3,132.7,59.4,132.5,59.5,132.2z M75,51.8c1.5-1.7,2.1-3.9,2.6-6.3C76.6,47.5,75.2,49.3,75,51.8c-0.1,0.1-0.1,0.2-0.2,0.3
			c0,0,0.1,0,0.1,0C75,52,75,51.9,75,51.8z M165.9,289.9c-1.8,2.1-2.4,4.8-3.2,7.4C164.2,295.1,165.6,292.8,165.9,289.9
			c0.1-0.1,0.2-0.2,0.2-0.3c-0.1,0-0.1,0-0.2,0C166,289.7,166,289.8,165.9,289.9z M145.9,388.2c-1.4,0.4-2.7,0.9-3,2.9
			c-0.1,0.5-0.2,1.3,0.3,1.6c0.6,0.3,0.9-0.3,1.1-0.8C144.8,390.6,145.3,389.3,145.9,388.2c0-0.1,0.1-0.2,0.1-0.2
			C145.9,388,145.9,388.1,145.9,388.2z M196.6,223.3c-1.8,2-2.8,4.5-3.2,7.3C194.9,228.4,196.2,226.2,196.6,223.3
			c0.1-0.1,0.1-0.2,0.2-0.3c0,0-0.1,0-0.1,0C196.6,223.1,196.6,223.2,196.6,223.3z M221.2,99.5c2.7-1.7,3.1-5.2,4.2-8
			C223.7,93.9,222,96.4,221.2,99.5c-0.1,0-0.2,0-0.2,0.1c0,0,0,0.1,0,0.2C221,99.7,221.1,99.6,221.2,99.5z M383.4,223.9
			c-2.1,3.2-2.6,7.2-3.9,10.9C381.8,231.6,383.1,227.9,383.4,223.9c0.2-0.2,0.6-0.4,0.2-0.8C383.5,223.3,383.5,223.6,383.4,223.9z
			 M229.2,212.6c3.5-2.2,3.1-6.8,4.8-10.2C232.2,205.6,230.2,208.8,229.2,212.6c-0.1,0.2-0.3,0.4-0.4,0.6c0.1,0.1,0.1,0.1,0.2,0.2
			C229.1,213.1,229.2,212.8,229.2,212.6z M230.2,101.3c-2,1.7-3.9,3.6-3.8,7.1C229.7,107.2,229.7,104,230.2,101.3
			c0-0.1,0.1-0.2,0.1-0.3C230.3,101.1,230.3,101.2,230.2,101.3z M274.9,219.1c2.4-3.3,4-7.2,4.8-11.5
			C278,211.4,275.8,214.8,274.9,219.1c-0.2,0.2-0.7,0.4-0.2,0.8C274.8,219.6,274.9,219.4,274.9,219.1z M161.9,289.3
			c-2.4,3.5-4.1,7.3-5.2,11.6C158.5,297.1,161.2,293.8,161.9,289.3c0.1-0.1,0.1-0.2,0.2-0.3c0,0-0.1,0-0.1,0
			C162,289.2,162,289.3,161.9,289.3z M384.9,84c-3,3.7-4.1,8.5-5.5,13.1c-0.1,0.1-0.2,0.2-0.2,0.3c0.1,0,0.1,0,0.2,0
			c0-0.1,0.1-0.2,0.1-0.2C381.8,93.1,383.7,88.7,384.9,84c0.1-0.1,0.2-0.2,0.2-0.3c-0.1,0-0.1,0-0.2,0C385,83.8,384.9,83.9,384.9,84
			z M217.2,141.7c2.5-3.5,3.4-7.9,4.9-12.1C219.9,133.4,217.4,136.9,217.2,141.7c0,0.1-0.1,0.1-0.1,0.2
			C217.1,141.8,217.1,141.8,217.2,141.7z M233.2,453c-3.7,1.9-4.5,3.6-3.5,8.3C230.8,458.2,233,456.2,233.2,453c0.1,0,0.1,0,0.2-0.1
			c0,0,0-0.1,0-0.2C233.4,452.9,233.3,452.9,233.2,453z M147.3,264.3c-3.8,3.5-4.3,9.2-6.3,13.9
			C143.2,273.6,145.9,269.4,147.3,264.3c0.1-0.2,0.3-0.4,0.4-0.7c-0.1-0.1-0.1-0.1-0.2-0.2C147.5,263.8,147.4,264.1,147.3,264.3z
			 M373.9,174.5c-2.6,3.9-4.5,8.3-6.2,12.8C370.2,183.3,373.1,179.6,373.9,174.5c0.1-0.2,0.3-0.4,0.4-0.6c-0.1-0.1-0.1-0.1-0.2-0.2
			C374,173.9,373.9,174.2,373.9,174.5z M85.1,288.7c2.7-3.3,4.3-7.4,5.8-11.6C87.8,280.2,86.1,284.3,85.1,288.7
			c-0.2,0.2-0.7,0.4-0.2,0.8C85,289.3,85,289,85.1,288.7z M174,97.1c-3.3,4.1-4.8,9.3-6.2,14.5C169.7,106.7,172.9,102.5,174,97.1
			c0.1,0,0.1,0,0.2-0.1c0,0,0-0.1,0-0.2C174.1,96.9,174.1,97,174,97.1z M315.6,217.3c-3.4,3.9-6,8.4-7.3,13.9
			C310.9,226.6,313.7,222.4,315.6,217.3c0.1-0.2,0.3-0.4,0.4-0.7c-0.1-0.1-0.1-0.1-0.2-0.2C315.7,216.8,315.7,217,315.6,217.3z
			 M19.3,129.2c3.2-5.5,5.4-11.7,7.9-17.6c0-0.1-0.1-0.3-0.2-0.7c-1.4,1.6-2,3.7-2.7,5.5C22.6,120.7,20.2,124.6,19.3,129.2
			c0,0.1-0.1,0.1-0.2,0.1c0,0,0,0.1,0,0.2C19.1,129.4,19.2,129.3,19.3,129.2z M378.9,175.6c-3.5,4.1-5.2,9.2-6.7,14.5
			c1.6-2.5,3-5.1,4.2-7.9C377.2,180.1,378.8,178.3,378.9,175.6c0.1-0.1,0.2-0.2,0.3-0.3C379.1,175.5,379,175.5,378.9,175.6z
			 M86.1,326.8c-4.8,1.8-5.4,4-1.9,8.3C84.9,332.2,85.5,329.5,86.1,326.8c0-0.1,0.1-0.2,0.1-0.3C86.2,326.7,86.1,326.8,86.1,326.8z
			 M424.6,57.8c2.6-3.5,4.7-7.5,7.2-12.1C427,48.5,425.5,52.8,424.6,57.8c-0.1,0.1-0.2,0.2-0.3,0.3C424.4,58,424.5,57.9,424.6,57.8z
			 M50.9,218.5c-3.5,3.2-5.1,8.2-7.8,12.1C47.5,228.2,49.1,223.2,50.9,218.5c0.1-0.2,0.3-0.4,0.4-0.7c-0.1-0.1-0.1-0.1-0.2-0.2
			C51,218,51,218.2,50.9,218.5z M374.9,93.5c1-0.5,1.4-1.6,1.9-2.7c2.3-5.4,4.5-10.8,6.8-16.2c0.2-0.5,0.6-1-0.1-1.8
			c-2.2,5.2-4.4,10.2-6.5,15.4C376.2,89.9,374.8,91.3,374.9,93.5c-0.1,0.1-0.1,0.2-0.2,0.3c0,0,0.1,0,0.1,0
			C374.8,93.7,374.8,93.6,374.9,93.5z M133.2,364.9c-3.2,3.6-6,7.4-5.9,13.8C129.7,373.8,131.8,369.6,133.2,364.9
			c0.7-0.4,1.3-1,0.8-2C133.3,363.3,133.3,364.1,133.2,364.9z M148.4,42.9c-2.1,1.7-2.9,4.5-4,7c-1.8,3.9-4.2,7.5-5,12.1
			c-0.1,0.1-0.2,0.2-0.2,0.3c0.1,0,0.1,0,0.2,0c0-0.1,0.1-0.2,0.1-0.2c2.3-3.2,3.7-7.1,5.5-10.8C146.1,48.5,147.8,46.1,148.4,42.9
			c0.1,0,0.1,0,0.2-0.1c0,0,0-0.1,0-0.2C148.5,42.7,148.4,42.8,148.4,42.9z M250.8,178c-2.6,3.6-4,8.1-6.1,12.1
			c-0.7,1.3-1.8,2.5-1.8,5.1C247.2,189.9,249.1,184,250.8,178c0.1-0.2,0.2-0.4,0.4-0.6c-0.1-0.1-0.1-0.1-0.2-0.2
			C251,177.5,250.9,177.8,250.8,178z M89.1,176.9c-3.6,5.1-6.3,10.9-8.7,16.9c1.1-1.1,2-2.4,2.7-3.8C85.4,185.8,88,181.8,89.1,176.9
			c0.1-0.1,0.1-0.2,0.2-0.3c0,0-0.1,0-0.1,0C89.1,176.7,89.1,176.8,89.1,176.9z M225.7,389.9c3.9-3.8,6.7-8.5,7.8-14.5
			c-1.5,2.2-3,4.4-4.3,6.8C228,384.8,225.9,386.7,225.7,389.9c-0.1,0-0.2,0-0.2,0.1c0,0,0,0.1,0,0.2
			C225.6,390.1,225.6,390,225.7,389.9z M79.5,50.7c0.6,0,0.9-0.4,1.2-1c2.7-5.9,5.5-11.8,8.2-17.7c0.3-0.6,0.3-1.2-0.2-2.3
			C85.8,37.2,82,43.5,79.5,50.7c-0.1,0.2-0.2,0.4-0.4,0.7c0.1,0,0.1,0.1,0.2,0.1C79.4,51.2,79.5,50.9,79.5,50.7z M30.3,210.2
			c-1.2,1.2-2.4,2.4-3.7,3.5c-1.5,1.4-1.8,3.4-1.9,5.5c0,0.6-0.1,1.2,0.5,1.5c0.6,0.2,1-0.1,1.3-0.6
			C27.8,216.8,29.8,213.8,30.3,210.2c0.1-0.1,0.2-0.2,0.3-0.3C30.5,210,30.4,210.1,30.3,210.2z M113.2,174.5
			c3.8-4.1,7.7-13,7.7-17.8c-1.1,2.2-2.2,4.1-2.9,6.1C116.5,166.8,114,170.1,113.2,174.5c-0.1,0.1-0.2,0.2-0.2,0.3
			c0.1,0,0.1,0,0.2,0C113.2,174.6,113.2,174.5,113.2,174.5z M135.3,42.3c4.3-5.6,7.2-14,5.8-16.9c-0.4,1-0.9,1.9-1.2,3
			C138.5,33.1,136.1,37.3,135.3,42.3c-0.1,0.2-0.3,0.4-0.4,0.6c0,0,0.1,0.1,0.2,0.2C135.2,42.9,135.2,42.6,135.3,42.3z M355.3,285.2
			c0.7,0,0.9-0.7,1.2-1.3c2.4-5,4.7-10,7.1-14.9c1.1-2.3,2.1-4.6,2.4-7.3C362.3,269.4,358.3,277,355.3,285.2
			c-1.2,0.9-1.5,2.3-1.7,3.8C354.7,288.1,355.3,286.8,355.3,285.2z M124.3,360.8c3.5-2.3,6.4-5.3,6.9-11
			C127.9,353.1,124.4,355.4,124.3,360.8c-0.1,0-0.2,0.1-0.3,0.2C124.1,361,124.2,360.9,124.3,360.8z M182,145.3
			c-3.3,3.2-4.6,8.1-6.6,12.3c-1.8,3.9-4.2,7.5-5,12.1c-0.1,0.1-0.2,0.2-0.2,0.3c0.1-0.1,0.2-0.2,0.3-0.3c3-4.7,5-10,7.5-15
			C179.4,151.7,181.3,148.8,182,145.3c0.1,0,0.2,0,0.2-0.1c0,0,0-0.1,0-0.2C182.2,145.1,182.1,145.2,182,145.3z M412,48.3
			c-4.3,2.4-5.3,5.6-4.2,13.5C409.4,57.1,411.5,53,412,48.3c0-0.1,0.1-0.2,0.1-0.3C412.1,48.1,412.1,48.2,412,48.3z M76,294.7
			c-3.1,3.6-5.3,8.1-8,12.1c-0.4,0.6-1.3,1.1-0.7,1.9c0.5,0.7,1.3,0.2,1.8-0.2c0.4-0.3,1-0.5,1.2-1C72.6,303.4,74.7,299.3,76,294.7
			c0.1,0,0.1,0,0.2-0.1c0,0,0-0.1,0-0.2C76.2,294.5,76.1,294.6,76,294.7z M282.5,466.7c5.1-5.1,7.8-11.1,7.2-15.7
			c-1,0.7-1.3,2-1.8,3.1C286.2,458.4,283.4,462,282.5,466.7c-0.3,0-0.7,0.1-0.7,0.5c0,0.1,0.2,0.3,0.3,0.3
			C282.4,467.5,282.4,467.1,282.5,466.7z M452.2,64.9c-2.4,0.4-3.7,2.7-5.1,4.4c-2.5,2.9-5.1,5.7-6.6,9.7c2.8-2.6,5.4-5.3,8-8.1
			C450,69.2,451.9,67.8,452.2,64.9c0.1-0.1,0.2-0.2,0.2-0.3C452.4,64.7,452.3,64.8,452.2,64.9z M258.4,426.2c-0.2,0.1-0.6,0-0.7,0.2
			c-5,5.3-7.8,12.4-10.6,19.4c0,0,0.2,0.2,0.5,0.5c2.2-4,4.5-8,6.7-12.1C255.6,431.6,257.4,429.2,258.4,426.2
			c0.1-0.2,0.2-0.4,0.4-0.7c-0.1,0-0.1-0.1-0.2-0.1C258.5,425.7,258.4,426,258.4,426.2z M126.8,363.7c-3.4,2-6.5,4.4-6.3,9.8
			C124.7,372.4,126.4,369.8,126.8,363.7c0-0.1,0.1-0.2,0.1-0.3C126.8,363.6,126.8,363.7,126.8,363.7z M216.2,413.8
			c0.3-0.2,0.7-0.3,0.8-0.5c2.4-3.8,4.9-7.5,7.1-11.4c0.9-1.6,1.8-3.4,2-5.9C221.4,401.1,218.1,406.9,216.2,413.8
			c-0.2,0.2-0.3,0.4-0.4,0.6c0,0,0.1,0.1,0.2,0.2C216,414.3,216.1,414,216.2,413.8z M251.3,312.6c4.8-4.9,6.6-11.5,7.8-18.6
			c-2.1,4-4,8.1-5.9,12.3C252.4,308.2,251.2,310.1,251.3,312.6c-0.1,0-0.2,0-0.2,0.1c0,0,0,0.1,0,0.2
			C251.2,312.7,251.2,312.6,251.3,312.6z M116.7,35.2c-1.4,1.2-1.9,2.9-2.4,4.7c-2.1,7.5-4.1,15-6.1,22.5c-0.2,0.7-0.8,1.3-0.2,2.2
			c0.5-0.2,0.6-0.7,0.7-1.1c2.2-7.2,4.4-14.5,6.6-21.7C115.9,39.6,116.8,37.5,116.7,35.2c0.1-0.1,0.2-0.2,0.2-0.3c0,0-0.1,0-0.1,0
			C116.8,35,116.7,35.1,116.7,35.2z M111.7,342.9c-3.8,3.6-5.8,8.8-8.8,13.1c-0.6,0.9-1,1.7,0.2,2.3c1,0.6,1.8,1,2.4-0.7
			c0.4-1,1-1.9,1.3-2.8C108.3,350.8,110.8,347.3,111.7,342.9c0.1-0.1,0.2-0.2,0.2-0.3C111.8,342.7,111.8,342.8,111.7,342.9z
			 M92.6,256c-0.9,0.4-1.5,1.3-1.9,2.2c-2.2,4.5-4.4,9.1-6.5,13.7c-0.8,1.8-2.3,3.4-2.4,6.5c1.3-2,2.3-3.5,3.2-5
			C88.4,268.2,91.6,262.8,92.6,256c0.2-0.2,0.6-0.3,0.2-0.8C92.7,255.5,92.7,255.8,92.6,256z M51.9,94.7c0.5-0.5,1-1,1.4-1.6
			c4.5-6.2,6.5-14.1,9.6-21.3c0.5-1.2,1.2-2.4,1.1-3.9c0.1-0.1,0.2-0.2,0.2-0.3c-0.1,0-0.1,0-0.2,0c0,0.1-0.1,0.2-0.1,0.2
			c-0.6,0.3-0.8,0.9-1.1,1.6c-2,4.4-4.2,8.8-6.1,13.3C55.2,86.8,52.8,90.3,51.9,94.7c-0.1,0-0.1,0-0.2,0.1c0,0,0,0.1,0,0.2
			C51.8,94.9,51.9,94.8,51.9,94.7z M132.8,326.2c-0.3,0.4-0.7,0.8-1,1.3c-2.9,6-5.9,11.9-8.6,18c-1.5,3.4-3.8,6.5-4.5,10.4
			c0,0.1-0.1,0.1-0.1,0.2c0-0.1,0.1-0.2,0.1-0.2c1.7-0.3,2.3-1.9,2.9-3.3c2.8-6.4,5.6-12.8,8.4-19.2
			C131,331.1,132.6,329,132.8,326.2c0.1-0.1,0.2-0.2,0.2-0.3c-0.1,0-0.1,0-0.2,0C132.8,326.1,132.8,326.2,132.8,326.2z M282,435.8
			c-0.9,0.4-1.1,1.4-1.6,2.2c-3.5,7-7.1,14.1-10.5,21.2c-0.6,1.3-1.8,2.5-1.8,4.8c1.4-1.3,2.4-2.4,3.1-3.9c2.9-6.3,5.9-12.6,8.7-19
			C280.7,439.4,282,437.9,282,435.8c0.1,0,0.1,0,0.2-0.1c0,0,0-0.1,0-0.2C282.1,435.6,282,435.7,282,435.8z M231.7,398.8
			c5.3-6.4,9.6-13.6,12.7-21.8c-3.6,4.9-6.9,10-10.2,15.2C232.9,394.2,231.6,396.2,231.7,398.8c-0.1,0.1-0.1,0.2-0.2,0.3
			c0,0,0.1,0,0.1,0C231.7,399,231.7,398.9,231.7,398.8z M486.9,184c2.4-3.5,3.8-7.8,5.8-11.7c1-2.1,2.1-2.5,3.8-1.5
			c0.5,0.3,1.1,1.6,1.7,0c0.3-1,0.9-1.8,0-2.9c-2.1-2.7-4.6-2.3-6,1.1c-1.1,2.8-2.2,5.5-3.3,8.3C488.1,179.5,487.1,181.6,486.9,184
			c-0.1,0-0.2,0.2-0.3,0.3C486.7,184.2,486.8,184.1,486.9,184z M188.5,63.7c-4.9,4.8-7.9,11.1-9.7,18.2c1.2-1.1,2.2-2.3,3.2-3.7
			C185,73.9,187.1,69.1,188.5,63.7c0.1,0,0.1,0,0.2-0.1c0,0,0-0.1,0-0.2C188.7,63.6,188.6,63.7,188.5,63.7z M429.1,275.6
			c0.6-0.3,0.8-0.9,1.1-1.5c4.7-9.9,9.4-19.8,14-29.8c1.3-2.9,3.1-5.5,3.8-8.9c-0.7,0-0.9,0.5-1.1,0.9c-4.9,10.1-9.8,20.2-14.6,30.5
			C431.1,269.6,429.2,272.2,429.1,275.6c-0.1,0.2-0.3,0.4-0.4,0.6c0,0,0.1,0.1,0.2,0.2C429,276.2,429.1,275.9,429.1,275.6z
			 M18.3,121.5c-2.8,0.5-4,2.9-4.8,5.7c-1.5,5-3.5,9.8-4,15.1c2.8-4.9,4.8-10.2,7-15.4C17.2,125.2,18.3,123.6,18.3,121.5
			c0.1,0,0.2-0.1,0.3-0.2C18.4,121.3,18.3,121.4,18.3,121.5z M334.7,238.2c0.3-0.3,0.7-0.5,0.9-0.9c3.5-6.2,7.1-12.4,10.5-18.7
			c1-1.8,1.6-3.9,1.8-6.1c-3.4,5.5-6.7,11-9.9,16.7C336.5,231.8,335.3,234.8,334.7,238.2c-0.1,0.2-0.3,0.4-0.4,0.6
			c0,0,0.1,0.1,0.2,0.2C334.6,238.7,334.6,238.4,334.7,238.2z M480.4,138.8c6-3.1,8.4-9.6,11.1-15.9c-4.9,4.1-9.4,8.5-11.3,15.7
			c-0.1,0.1-0.1,0.2-0.2,0.4C480.2,139,480.3,138.9,480.4,138.8z M360.8,23.3c-0.1,0.1-0.3,0.2-0.4,0.3c-7.3,8.3-12.9,18.1-18.3,28
			c-0.3,0.5-0.6,1-0.2,1.6c0.7-0.1,0.9-0.8,1.2-1.3c4.4-7.9,9.2-15.4,14.8-22.2C359.4,28,360.5,25.8,360.8,23.3
			c0-0.1,0.1-0.2,0.1-0.2C360.9,23.1,360.9,23.2,360.8,23.3z M287,316.1c0.7-0.4,1.1-1.1,1.5-1.9c2.5-4.7,5-9.3,7.4-14
			c1.9-3.6,3.7-7.3,5.6-11c-0.2-0.1-0.4-0.3-0.5-0.4c-2,3.1-3.9,6.2-6,9.2C291.4,303.5,288.1,309.1,287,316.1c-0.1,0-0.1,0-0.2,0.1
			c0,0,0,0.1,0,0.2C286.8,316.3,286.9,316.2,287,316.1z M311.6,429.8c-0.5,0.5-1,1-1.5,1.6c-5,7.5-10,15.1-14.9,22.6
			c-1,1.6-2.4,3-2.4,5.3c1,0,1.4-0.9,1.8-1.5c4-5.9,8.1-11.8,12-17.8C308.6,436.9,310.7,433.7,311.6,429.8c0.5,0,0.8-0.1,0.8-0.7
			c0-0.1-0.1-0.2-0.2-0.2C311.7,428.9,311.6,429.3,311.6,429.8z M330.7,439.9c2.6-0.9,4.1-3.5,6-5.6c0.4-0.4,0.6-0.9,0.3-1.6
			c-0.7-1.7,0-3.1,0.7-4.4c1.9-4.1,3.8-8.1,5.6-12.2c0.3-0.7,0.7-1.6-0.2-2c-0.8-0.4-0.9,0.6-1.2,1.2c-1.3,2.6-2.6,5.3-3.8,8
			C335.7,428.8,332.5,434,330.7,439.9c0,0.1-0.1,0.2-0.1,0.2C330.6,440.1,330.6,440,330.7,439.9z M210.1,440.5
			c-4.8,1.5-8.1,5.2-10.5,10.2c-0.4,0.8-1,2,0.2,2.9c1,0.8,1.9,0.5,2.7-0.4C205.8,449.5,209,445.9,210.1,440.5
			c0-0.1,0.1-0.2,0.1-0.3C210.2,440.4,210.2,440.4,210.1,440.5z M53.9,76.2c0.6-0.3,0.8-0.9,1.1-1.5C59.7,64.9,64.4,55,69,45.2
			c1.9-4,3.5-8.2,5.3-12.3c-0.2-0.1-0.5-0.3-0.7-0.4c-0.6,1.2-1.3,2.4-1.9,3.7c-5.3,10.9-10.3,22-15.1,33.2
			C55.6,71.6,54.1,73.6,53.9,76.2c-0.1,0.1-0.1,0.2-0.2,0.3c0,0,0.1,0,0.1,0C53.9,76.4,53.9,76.3,53.9,76.2z M215.7,128
			c-0.3,0.3-0.7,0.6-0.9,1c-5.2,9.2-9.5,19.1-13.4,29.1c-0.9,2.2-2.2,4.2-2.3,6.8c-0.1,0.2-0.3,0.4-0.4,0.6c0.1,0.1,0.1,0.1,0.2,0.2
			c0.1-0.3,0.1-0.5,0.2-0.8c0.3-0.3,0.7-0.6,0.9-1c4.8-9.4,9.1-19.1,13.4-28.8C214.3,132.9,215.4,130.7,215.7,128
			c0.1-0.1,0.2-0.2,0.2-0.3c-0.1,0-0.1,0-0.2,0C215.7,127.8,215.7,127.9,215.7,128z M138.3,176.8c0.3-0.4,0.8-0.8,1-1.3
			c4.8-10.8,10.1-21.2,13.8-32.6c0.9-2.8,1.9-5.6,2.8-8.4c-0.6,0-0.8,0.2-0.9,0.5c-4.8,11.6-9.7,23.3-14.4,35
			C139.7,172.2,138.4,174.3,138.3,176.8c-0.2,0.2-0.6,0.4-0.2,0.8C138.2,177.4,138.3,177.1,138.3,176.8z M47.9,239.9
			c-4.6,4.4-8.7,9.3-10.9,16c-0.6,2-0.1,4,1.2,6.3C41.7,254.7,45.2,247.6,47.9,239.9c0.2-0.1,0.3-0.4,0.4-0.6c0,0-0.1-0.1-0.2-0.2
			C48,239.4,47.9,239.6,47.9,239.9z M180.5,207.8c-0.6,0.3-0.8,1-1.2,1.5c-7.8,12-12.3,26.3-18.2,39.5c-0.2,0.4-0.2,0.7,0.2,1
			c0.2-0.2,0.4-0.3,0.5-0.6c6-12.9,12.1-25.8,18.1-38.6C180.4,209.7,180.6,208.8,180.5,207.8c0.1-0.1,0.1-0.2,0.2-0.3
			c0,0-0.1,0-0.1,0C180.5,207.6,180.5,207.7,180.5,207.8z M72,174.5c0.2-0.2,0.5-0.3,0.6-0.5c6.4-13.3,12.8-26.6,19.2-39.9
			c0.2-0.3,0.3-0.7-0.4-1c-2.7,4.9-6.2,9.4-8.5,14.7c-3.4,7.8-6.6,15.7-10,23.6C72.4,172.4,71.9,173.3,72,174.5
			c-0.1,0.1-0.2,0.2-0.3,0.3C71.9,174.7,71.9,174.6,72,174.5z M348.3,414.3c0.2-0.2,0.5-0.3,0.6-0.5c8.8-14.7,15.9-30.6,22.3-46.9
			c0.2-0.4,0.1-1,0.2-1.4c0.1,0,0.1,0,0.2-0.1c0,0,0-0.1,0-0.2c-0.1,0.1-0.1,0.2-0.2,0.3c-0.8,0.4-1,1.3-1.3,2.1
			c-5.7,11.9-11.5,23.8-17,35.8C351.3,407,349,410.2,348.3,414.3c-0.1,0.1-0.1,0.2-0.2,0.3c0,0,0.1,0,0.1,0
			C348.2,414.5,348.2,414.4,348.3,414.3z M223.2,256c4-5,7-10.7,9.3-17c2.7-7.4,5.1-15,7.6-22.5c0.3-0.9,0.9-1.7,0.4-2.9
			c-0.3,0.5-0.5,0.9-0.7,1.4c-5.4,12.9-10.8,25.9-16.1,38.9C223.4,254.5,223.1,255.2,223.2,256c-0.1,0.1-0.1,0.2-0.2,0.3
			c0,0,0.1,0,0.1,0C223.2,256.2,223.2,256.1,223.2,256z M79.1,274.5c-4.2,4.5-7.6,9.9-11.5,14.8c-1.3,1.7-2.9,3-3.7,5.2
			c-0.3,0.8-1.2,2.5,0.6,2.2c2.7-0.4,5.4-1.3,6.7-4.8c1.1-2.7,2.6-5.1,3.7-7.8C76.2,280.9,78.4,278.1,79.1,274.5
			c0.1,0,0.1,0,0.2-0.1c0,0,0-0.1,0-0.2C79.2,274.3,79.1,274.4,79.1,274.5z M459.7,185.2c0.3-0.3,0.7-0.6,0.9-1
			c4.9-9.6,9.8-19.3,14.7-28.9c1.8-3.6,3.6-7.1,5.4-10.7c-0.2-0.1-0.4-0.3-0.6-0.4c-3.8,5.1-7.7,10.2-10.4,16.3
			c-3.2,7.2-5.8,14.7-9.2,21.7C460.1,183.1,459.6,184,459.7,185.2c-0.1,0.2-0.2,0.4-0.4,0.6c0.1,0.1,0.1,0.1,0.2,0.2
			C459.6,185.7,459.7,185.4,459.7,185.2z M395.5,344.7c-0.3,0.4-0.8,0.8-1,1.3c-6.4,13.4-12.9,26.8-19.2,40.2
			c-1,2.1-2.4,3.9-2.7,6.4c0.7,0,0.9-0.5,1.1-0.9c7.7-12.6,13.6-26.5,19.8-40.1C394.4,349.5,395.6,347.3,395.5,344.7
			c0.1-0.1,0.2-0.2,0.2-0.3c0,0-0.1,0-0.1,0C395.5,344.5,395.5,344.6,395.5,344.7z M31.8,141.7c4.6-6.6,8.9-13.5,12.2-21.2
			c2-4.7,4.1-9.4,5.4-14.6c0.2-0.2,0.6-0.3,0.2-0.8c-0.1,0.3-0.1,0.5-0.2,0.8c-0.2,0.1-0.5,0.2-0.6,0.5
			c-7.4,10.2-12.2,22.3-16.9,34.4C31.8,141.1,31.8,141.4,31.8,141.7c-0.1,0-0.1,0-0.2,0.1c0,0,0,0.1,0,0.2
			C31.7,141.9,31.8,141.8,31.8,141.7z M279.4,379.2c-0.4,0.4-0.8,0.7-1.1,1.2c-7.1,9.9-11.9,21.5-16.9,32.9
			c-0.2,0.4-0.8,0.9,0.1,1.6c4.9-7.5,9.5-15.2,13.7-23.3C277.2,387.7,278.6,383.6,279.4,379.2c0.1,0,0.2-0.2,0.3-0.3
			C279.6,379,279.5,379.1,279.4,379.2z M371.4,266.7c-0.3,0.3-0.6,0.4-0.7,0.8c-5.8,10.5-10.8,21.4-14.6,33
			c-0.8,2.5-2.3,4.8-2.5,7.6c0.7,0,0.8-0.5,1-0.9c4.4-9.1,8.7-18.2,13.1-27.4C369.5,275.7,370.8,271.4,371.4,266.7
			c0.1-0.2,0.3-0.4,0.4-0.6c0,0-0.1-0.1-0.2-0.2C371.5,266.2,371.4,266.5,371.4,266.7z M306.1,397.1c-0.7,0.3-0.9,1.1-1.2,1.8
			c-4.1,8.5-8.2,17-12.3,25.5c-2.1,4.4-4.1,8.8-5.1,13.8c-0.2,0.2-0.6,0.3-0.2,0.8c0.1-0.3,0.1-0.5,0.2-0.8c1.2-0.7,1.8-2,2.6-3.1
			c5.7-7.5,8.7-16.8,11.8-25.9C303.3,405.1,305.3,401.4,306.1,397.1c0.2-0.2,0.6-0.4,0.2-0.8C306.2,396.5,306.1,396.8,306.1,397.1z
			 M81,234.5c-0.7,0-0.9,0.7-1.2,1.3c-1.4,3.1-2.9,6.2-4.2,9.4c-4.2,10-8.4,20-14,29.1c-2.9,4.8-5.1,10.2-7.6,15.4
			c-0.6,1.3-1.1,2.8,0.2,3.6c1.4,0.9,1.4-1.2,1.8-2c7.5-16,14.8-32.2,21.6-48.6C78.7,240,80.4,237.6,81,234.5
			c1.2-0.9,1.5-2.3,1.7-3.8C81.7,231.7,81.1,232.9,81,234.5z M305.1,275.1c2.1-2.2,3.5-5,5.2-7.6c9.2-13.5,16.9-28.2,24.2-43.2
			c0.3-0.6,0.8-1.2,0.3-2.2c-0.4,0.6-0.6,0.9-0.9,1.3c-9.6,16.2-18.8,32.7-28,49.2C305.4,273.3,304.9,274,305.1,275.1
			c-0.4,0-0.7,0.1-0.8,0.5c0,0.1,0.2,0.3,0.3,0.3C305,275.9,305,275.4,305.1,275.1z M71.5,216.1C62.5,229,55.1,243,52,259.8
			c0.8-0.2,0.9-0.9,1.1-1.4c5.3-11.9,10.6-23.8,15.8-35.7C69.9,220.6,71.5,218.8,71.5,216.1c0-0.1,0.1-0.1,0.2-0.1c0,0,0-0.1,0-0.2
			C71.7,216,71.6,216.1,71.5,216.1z M137.3,301.2c-2.4,2.9-3.7,6.5-5.4,9.9c-3.5,6.8-8,12.7-10.8,19.9c-2.2,5.7-4.3,11.6-6.4,17.4
			c-1.3,3.5-2.6,7.1-4,11c1.9-0.3,2.1-1.7,2.5-2.8c6.3-15.4,13.2-30.5,20.1-45.5C134.8,307.9,136.7,304.9,137.3,301.2
			c0.1-0.1,0.2-0.2,0.2-0.3C137.5,301,137.4,301.1,137.3,301.2z M349.6,373c6.7-6.6,31.3-49.4,31.7-55
			c-10.3,18.5-22.9,35.2-31.6,55.5c0-0.1,0.1-0.2,0.1-0.2c-0.1,0-0.1,0-0.2,0.1c0,0,0,0.1,0,0.2C349.6,373.5,349.6,373.5,349.6,373z
			 M386.4,322c-1.4,0.5-1.7,2.1-2.3,3.3c-3.6,7.7-7.2,15.4-10.8,23.1c-9.3,19.8-18.7,39.5-28,59.3c-0.4,0.8-1.1,2-0.2,2.6
			c0.9,0.6,1.1-0.9,1.4-1.6c5.5-11.8,11-23.6,16.4-35.3c5.2-11.3,10.6-22.5,15.7-33.8C381.3,333.8,384.4,328.3,386.4,322
			c0.5-0.2,0.9-0.6,0.8-1.2c0-0.1-0.3-0.3-0.3-0.2C386.3,320.9,386.4,321.5,386.4,322z M91.1,126.9c3.1-4,6.2-8.2,7.9-13.2
			c3.7-11.2,7-22.6,10.4-34c0.3-0.9,0.9-1.9,0.4-3.5c-2.2,5.2-4.9,9.6-6.6,14.6c-2.4,7-4.9,13.9-7.1,20.9
			C94.5,116.7,92,121.4,91.1,126.9c-0.1,0.1-0.2,0.2-0.3,0.3C91,127,91,127,91.1,126.9z M333.2,442.9c-2.2,1-4.4,2.1-6.7,0.5
			c-0.9-0.6-1.1,0.4-1.4,1c-1.5,2.5-2.4,2.5-3.8-0.1c-0.3-0.5-0.3-1.3-1-1.5c-2,4.3-3.9,8.6-5.9,12.8c-0.8,1.6-0.5,2.1,1,2.5
			c2.3,0.6,4.2,0.4,6.1-1.2c4.3-3.6,7.7-8.2,11.3-12.5C333,443.9,333.1,443.4,333.2,442.9c0.1,0,0.1,0,0.2-0.1c0,0,0-0.1,0-0.2
			C333.3,442.7,333.3,442.8,333.2,442.9z M130.3,345.3c2.3-2.4,4.7-4.7,6.1-8.1c5.3-12.9,11.1-25.5,17-38c1.6-3.5,2.6-7.3,3.2-11.3
			c-1.7,2.8-3.2,5.8-4.6,8.7c-7.4,15.2-14.6,30.4-21.2,46.1C130.5,343.5,130.1,344.3,130.3,345.3c-0.1,0.1-0.2,0.2-0.3,0.2
			C130.1,345.5,130.2,345.4,130.3,345.3z M59,147.1c-2.1,2.4-3.6,5.4-5,8.4c-3,6.3-6,12.5-9.7,18.4c-4.2,6.8-8.9,13.3-12,21.1
			c-1.5,3.9-3.2,7.7-4.5,11.8c1,0.3,1.2-0.3,1.5-0.8c3.6-4.9,6.8-10,9.6-15.6c5.5-11.1,10.7-22.4,16-33.6
			C56.3,153.6,58.3,150.7,59,147.1c0.1,0,0.1,0,0.2-0.1c0,0,0-0.1,0-0.2C59.1,146.9,59,147,59,147.1z M115.7,126.8
			c2.1-1.8,3.2-4.5,4.5-7.1c6.1-12.7,12.1-25.5,18.3-38.2c4.3-8.8,8-17.8,10.4-27.5c0.2-0.7,0.7-1.5,0-2.4c-0.4,0.8-0.9,1.5-1.2,2.3
			c-5.3,11.9-10.6,23.8-15.9,35.7c-3.7,8.2-7.5,16.4-11,24.6C119.1,118.5,116.8,122.3,115.7,126.8c-0.1,0-0.1,0-0.2,0.1
			c0,0,0,0.1,0,0.2C115.6,127,115.6,126.9,115.7,126.8z M217.2,159c2.7-3.6,4.5-7.8,6.7-11.7c5-9.1,9.8-18.4,14-28
			c1.2-2.9,2.7-5.7,2.9-9.7c-0.7,0.7-1.1,1-1.3,1.4c-7.5,11.6-14.9,23.3-19.3,37.1C219,151.6,217.4,155,217.2,159
			c-0.2,0.2-0.3,0.4-0.4,0.6c0,0,0.1,0.1,0.2,0.2C217,159.5,217.1,159.3,217.2,159z M106.2,342.9c1.2-0.1,1.7-1.1,2.3-2.1
			c2.2-3.5,4.4-7,6.4-10.6c2.9-5.2,6.5-9.8,8.7-15.6c2.6-7,5.2-13.9,7.8-20.9c1-2.7,2-5.3,3-8c-0.2-0.1-0.4-0.3-0.6-0.4
			c-2.1,3.8-4.7,7.2-6.6,11.3c-4.4,9.6-9,19-13.3,28.7C111.3,331.2,108.3,336.7,106.2,342.9c-0.1,0.1-0.2,0.2-0.2,0.3
			C106,343.1,106.1,343,106.2,342.9z M72,28.6c-2.9,1.4-4.1,4.8-5.7,7.6c-11.8,20.6-20.7,43.2-29,66c-0.9,2.5-2.1,4.8-2.2,7.7
			c0.9-1.3,1.6-2.7,2.3-4.2c2.9-6.6,5.8-13.2,8.6-19.8C54.3,66.6,62.5,47.2,72,28.6c0-0.1,0.1-0.2,0.1-0.2
			C72.1,28.5,72.1,28.6,72,28.6z M286.5,292.9c0.3-0.4,0.7-0.8,1-1.3c8.4-16.6,16.7-33.3,22.7-51.4c1.4-4.3,3.6-8.2,4.5-12.8
			c0.1-0.2,0.3-0.4,0.4-0.6c-0.1-0.1-0.1-0.1-0.2-0.2c-0.1,0.3-0.1,0.5-0.2,0.8c-3.1,4.5-5.3,9.5-7.8,14.4c-3.2,6.2-7,11.9-9.3,18.6
			c-2.2,6.3-4.6,12.5-6.6,18.9C289.3,283.8,287.2,288.1,286.5,292.9c-0.2,0.2-0.3,0.4-0.4,0.6c0,0,0.1,0.1,0.2,0.2
			C286.3,293.5,286.4,293.2,286.5,292.9z M170.4,132.2c-5,9-10.2,17.8-14.8,27c-6.5,13-12.7,26.2-18.8,39.5c-2.2,4.7-4.2,9.7-5.1,15
			c-0.1,0.1-0.1,0.2-0.2,0.3c0.1-0.1,0.2-0.2,0.3-0.3c0.4-0.5,0.8-1,1.1-1.5c5.1-8.5,9-17.8,13.3-26.9c6.6-13.9,13.2-27.8,19.6-41.8
			C167.5,139.9,169.8,136.5,170.4,132.2c1-0.2,1.3-1,1.2-2.2C170.7,130.5,170.6,131.3,170.4,132.2z M327.2,179.8
			c0.7-0.3,1-1,1.4-1.7c2.5-4.7,5-9.3,7.4-14.1c2.9-5.9,6.5-11.3,8.8-17.6c4.1-11.6,7.9-23.3,11.7-35c1.2-3.6,2.3-7.2,3.4-10.8
			c-0.2-0.1-0.4-0.2-0.6-0.3c-2,4.5-4.1,9-6.1,13.6c-7.4,17-14.3,34.3-21,51.7C330.4,170.3,328.2,174.8,327.2,179.8
			c-0.2,0.2-0.3,0.4-0.4,0.6c0,0,0.1,0.1,0.2,0.2C327,180.4,327.1,180.1,327.2,179.8z M325.2,288.8c0.9-0.5,1-1.5,1.5-2.3
			c2.4-5.1,4.7-10.3,7.3-15.2c9.6-18.8,17.9-38.4,25.5-58.4c0.6-1.7,1.6-3.3,1.7-5.3c-0.7,0-0.8,0.6-1.1,1
			c-5.5,9.8-10.9,19.6-16.4,29.5c-0.6,1.2-1.3,2.3-1.7,3.6c-4.2,12.4-8.7,24.6-13.3,36.8C327.4,281.7,325.6,284.9,325.2,288.8
			c-0.1,0.1-0.2,0.2-0.3,0.3C325,288.9,325.1,288.9,325.2,288.8z M153.9,245.9c0.3-0.3,0.7-0.6,0.9-1c4.8-7.4,8.6-15.5,12.4-23.7
			c9.4-20.7,18.9-41.2,26.6-62.9c0.8-2.2,2-4.3,2.3-6.9c-1.1,0.7-1.4,1.8-1.8,2.7c-13.1,27.5-26.4,54.8-37.5,83.6
			C155.6,240.4,154.2,242.8,153.9,245.9c-0.1,0.1-0.2,0.2-0.2,0.3c0.1,0,0.1,0,0.2,0C153.8,246.1,153.9,246,153.9,245.9z
			 M383.5,113.2c0.2-0.3,0.6-0.5,0.7-0.8c4.8-9.8,9.9-19.2,15.1-28.7c1.7-3,3.1-6.3,3.5-10.1c0.7-5.7,2-11.3,1.5-17.9
			c-3.3,4.7-7.3,7.9-8.9,13.4c-3.2,11.3-6.4,22.5-9.6,33.7c-0.9,3.4-2.3,6.6-2.6,10.2c-0.1,0.2-0.2,0.5-0.3,0.7c0,0,0.1,0.1,0.2,0.2
			C383.3,113.7,383.4,113.5,383.5,113.2z M349.7,58.3c-3,3.4-5.3,7.5-7.4,11.8c-5.5,11.3-11,22.6-16.3,34.1
			c-5.8,12.6-12.7,24.4-17.3,37.7c-2.1,6-4.6,11.9-5.8,18.3c-0.1,0.2-0.3,0.4-0.4,0.7c0,0,0.1,0.1,0.2,0.2c0.1-0.3,0.1-0.5,0.2-0.8
			c0.3-0.4,0.8-0.8,1-1.3c7.2-15.4,14.4-30.8,21.6-46.2c4.9-10.5,9.8-20.9,14.5-31.5C343.4,73.6,347.1,66.3,349.7,58.3
			c0.2-0.1,0.3-0.4,0.4-0.6c0,0-0.1-0.1-0.2-0.2C349.9,57.8,349.8,58.1,349.7,58.3z M198.6,426.2c0.8-0.9,1.7-1.7,2.4-2.6
			c7.7-10.7,13.8-22.8,20.5-34.4c4.8-8.4,7.1-18.3,10.4-27.6c0.2-0.6,0.7-1.2,0-1.9c-0.8,0.4-1.1,1.4-1.6,2.2
			c-6,10.8-12.2,21.6-18,32.5c-3.3,6.2-7.4,12-9.7,19C201.2,417.7,199,421.6,198.6,426.2c-0.1,0-0.2,0-0.2,0.1c0,0,0,0.1,0,0.2
			C198.4,426.4,198.5,426.3,198.6,426.2z M445.2,79.8c-7.1,8-13.1,16.8-17.3,27.6c-6.8,17.7-14.3,34.9-21.4,52.4
			c-1.4,3.4-2.4,7-3.6,10.5c0.7,0,0.9-0.3,1.1-0.6c6.4-13.8,12.8-27.6,19.2-41.3c5.3-11.4,10.6-22.6,15.8-34.1
			C441.1,89.5,443.7,85,445.2,79.8c0.1,0,0.2-0.1,0.3-0.3C445.3,79.6,445.3,79.7,445.2,79.8z M108.2,201.9c-1.5,1.8-2.2,4.2-3.2,6.3
			c-9.4,19.6-18.9,39.2-28.3,58.8c-1.4,2.9-2.8,5.9-4.3,9.2c0.6-0.2,0.9-0.2,1-0.3c7.2-10.2,15.6-19.4,20.6-31.6
			c2.2-5.2,5.3-9.9,6.9-15.4c2.4-7.8,4.5-15.7,6.7-23.6C107.9,204.2,108.4,203.1,108.2,201.9c0.1-0.2,0.2-0.4,0.4-0.6
			c-0.1-0.1-0.1-0.1-0.2-0.2C108.3,201.3,108.3,201.6,108.2,201.9z M109.7,210.8c1.4-1.6,2.1-3.8,3-5.8
			c5.5-11.4,11.4-22.6,16.3-34.4c5.6-13.4,11-26.9,16.6-40.3c0.3-0.6,0.9-1.2,0.2-2.4c-3.7,5.8-7.6,11.3-10.8,17.4
			c-3.4,6.7-6.7,13.5-9.8,20.3c-3.2,7-7.3,13.5-9.3,21.3c-1.8,6.8-3.8,13.5-5.7,20.3C109.9,208.4,109.5,209.5,109.7,210.8
			c-0.1,0.2-0.3,0.4-0.4,0.6c0,0,0.1,0.1,0.2,0.2C109.6,211.3,109.6,211,109.7,210.8z M266.9,228.6c-0.3,0.3-0.7,0.6-0.9,1
			c-2.7,5.7-5.5,11.3-8.2,17c-6.6,13.8-13.2,27.5-19.7,41.3c-7.4,15.7-15.6,30.9-21.3,47.7c-1,2.9-2.4,5.6-3,8.8
			c1.2-0.2,1.2-1.3,1.6-2c7.6-15.5,15-31.1,22.8-46.5c9.2-18.3,17.8-36.9,24.9-56.5C264.3,235.9,266.2,232.6,266.9,228.6
			c0.5-0.2,0.8-0.6,0.8-1.2c0-0.1-0.3-0.3-0.3-0.2C266.8,227.5,266.9,228.1,266.9,228.6z M467.8,266.2c1.1-0.2,1.3-1.4,1.8-2.3
			c7.6-12.7,14.8-25.6,21-39.3c5.5-12.2,10.5-24.7,12-38.7c0.5-4.4-0.1-8.7-1.8-12.8c-1.6,6.2-5.7,11.3-5,18.3
			c0.1,0.8,0,1.6-0.2,2.4c-1.6,8.7-5.4,16.5-6.9,25.3c-0.6,3.6-2.8,6.7-4.7,9.8c-1.1,1.9-2.7,3.6-3.1,5.7c-1,5.5-4.2,9.6-5.7,14.7
			C473.5,255.1,469.9,260.2,467.8,266.2c-0.2,0.1-0.3,0.4-0.4,0.6c0,0,0.1,0.1,0.2,0.2C467.7,266.7,467.8,266.4,467.8,266.2z
			 M174.5,51.2c-2.6,2.1-4.3,5.2-6.3,8c-2.9,4-6.4,7.6-8.5,12.3c-3.8,8.3-7.7,16.5-11.3,24.8c-6.7,15.6-15.1,30.2-19.7,47
			c-0.6,2.2-1.5,4.4-1.7,7c0.9-0.4,1.2-1.2,1.5-1.8c7.7-16,15.4-32,23-48c6.7-14,13.5-28,20.2-42.1
			C172.7,56.1,174.3,54.1,174.5,51.2c0.1-0.1,0.2-0.2,0.3-0.3C174.6,51.1,174.5,51.1,174.5,51.2z M266.9,363.7
			c-0.3,0.2-0.6,0.4-0.7,0.8c-3.5,6.5-6.9,13.1-10.4,19.7c-2.6,5-5.6,9.7-7.7,15c-4.8,12.1-9.4,24.3-14.5,36.2
			c-1.6,3.8-2.1,7.8-2.7,11.9c4.9-7.1,9.6-14.4,14.3-21.7c2.3-3.6,4.8-7,6.1-11.4c3.2-10.9,6.8-21.7,10.2-32.6
			C263.3,375.7,265.7,369.9,266.9,363.7c0.1-0.2,0.3-0.4,0.4-0.6c-0.1-0.1-0.1-0.1-0.2-0.2C267,363.2,267,363.5,266.9,363.7z
			 M217.7,91.1c-3.9,5.1-7.5,10.6-11,16.1c-3.3,5-7,9.6-9.6,15.1c-6.7,14-13.5,28-20.2,42.1c-2,4.1-3.9,8.3-5.9,12.5
			c0.7,0,1-0.3,1.3-0.7c6.9-10,14.2-19.7,20.6-30.2c7.6-12.4,15-25,19.8-39.4C214.3,101.4,216.7,96.6,217.7,91.1
			c0.1-0.1,0.1-0.2,0.2-0.3c0,0-0.1,0-0.1,0C217.7,91,217.7,91.1,217.7,91.1z M340.7,269.1c0.6-0.3,0.8-0.9,1.2-1.5
			c4.1-7.2,8.1-14.5,11.7-22.1c9-19.1,18.2-38.1,27.2-57.1c8.7-18.2,17.3-36.4,26-54.5c2.1-4.3,3.4-8.9,4.4-13.7
			c-2.6,3.8-5,7.8-7.3,11.8c-6.2,11-11,22.9-16.5,34.3c-6.7,13.9-13.1,28.1-19.8,42c-9.2,19.2-18.5,38.3-26.3,58.4
			C341,267.4,340.6,268.2,340.7,269.1c-0.1,0-0.1,0-0.2,0.1c0,0,0,0.1,0,0.2C340.6,269.3,340.6,269.2,340.7,269.1z M275.5,126.9
			c1-0.2,1.2-1.3,1.7-2c7.6-12.4,15.4-24.7,22.8-37.2c7.4-12.4,14.9-24.9,21.3-38.1c2.7-5.6,2.5-6.1-1.6-10.5
			c-1.3-1.4-2.1-1.4-3,0.5c-4.4,9.2-8.8,18.4-13.2,27.7c-6.8,14.1-13.6,28.2-20.3,42.3C280.6,115.3,277.6,120.8,275.5,126.9
			c-0.2,0.1-0.3,0.4-0.4,0.6c0,0,0.1,0.1,0.2,0.2C275.3,127.4,275.4,127.2,275.5,126.9z M460.3,66.1c-3,1.3-6,2.8-7.6,6.3
			c-3.5,7.4-6.9,15-10.3,22.4c-6.5,14.1-12.9,28.2-19.4,42.3c-9.7,21-19.4,42-29,63.1c-1.5,3.2-2.2,7-3.2,10.5
			c0.2,0.1,0.4,0.2,0.6,0.3c1.6-3.4,3.2-6.8,4.9-10.3c10.2-21.3,20.5-42.7,30.7-64c9.5-19.9,19.1-39.7,28.6-59.6
			C457.2,73.5,459.4,70.2,460.3,66.1c0-0.1,0.1-0.2,0.1-0.3C460.3,66,460.3,66.1,460.3,66.1z M241.8,367.4c0.9-0.1,1.3-0.8,1.8-1.5
			c6.6-9.4,13.3-18.8,19.9-28.2c4-5.7,7.5-11.8,10-18.7c4-11.3,8-22.6,12-34c0.5-1.5,1.5-3,1.2-5.4c-0.5,0.7-0.8,1-1,1.4
			c-12.5,23-25.1,45.9-38,68.5c-3.1,5.4-4.5,11.6-6,17.8c-0.1,0.2-0.2,0.5-0.3,0.7c0,0,0.1,0.1,0.2,0.2
			C241.7,367.9,241.8,367.6,241.8,367.4z M277.9,242.3c2.2-4.8,4.5-9.5,6.5-14.3c11.7-27.4,23.2-54.9,34.5-82.6
			c5.9-14.5,11.8-28.9,17.7-43.3c0.3-0.6,0.9-1.3,0.3-2.3c-0.2,0.3-0.5,0.6-0.6,0.9c-5.3,11.1-10.6,22.3-15.9,33.4
			c-6.3,13.3-12.7,26.5-19,39.8c-3.3,7.1-7.3,13.8-9.8,21.4c-4.1,12.7-7.8,25.7-11.6,38.6C279.3,236.6,277.9,239.2,277.9,242.3
			c-0.1,0.2-0.2,0.4-0.4,0.6c0.1,0.1,0.1,0.1,0.2,0.2C277.8,242.8,277.9,242.6,277.9,242.3z M315.1,279.2c-2,2-3.3,4.7-4.7,7.2
			c-8,13.4-17.2,25.7-24.2,40c-3.1,6.3-7,12.1-9.3,19c-3.6,11-7.3,21.9-10.7,32.9c-2.2,6.8-4.7,13.5-6.3,20.6
			c-0.1,0.2-0.2,0.4-0.4,0.6c0.1,0.1,0.2,0.1,0.3,0.2c0-0.2,0.1-0.5,0.1-0.7c0.7-0.3,0.9-1.1,1.2-1.8c7-16.9,14.5-33.4,22.3-49.8
			c8.3-17.4,16.9-34.6,25.6-51.6C311.6,290.5,313.7,285,315.1,279.2c0.2-0.2,0.3-0.4,0.4-0.6c0,0-0.1-0.1-0.2-0.2
			C315.2,278.7,315.2,278.9,315.1,279.2z M323.2,341.1c2-2.6,3-5.9,4.5-8.8c13.2-27,25.2-54.8,37.3-82.5
			c5.3-12.3,10.7-24.7,15.9-37.1c4.4-10.5,9.3-20.6,12.4-31.8c0.3-1,1-2,0.3-3.6c-0.5,0.9-0.9,1.6-1.2,2.2c-2.7,5.4-5.3,10.8-8,16.1
			c-8.3,16.4-16.7,32.7-23.9,49.8c-4.1,9.9-8.2,20-12.2,30c-7.1,18-14.2,36.1-21.2,54.2C325.6,333.4,323.8,337,323.2,341.1
			c-0.1,0.2-0.3,0.4-0.4,0.6c0,0,0.1,0.1,0.2,0.2C323,341.7,323.1,341.4,323.2,341.1z M86.1,109c-2.9,3.7-5.1,8.1-7.5,12.2
			c-6.4,10.9-12.9,21.7-18.3,33.3c-6.4,13.7-13.3,27-19.5,40.8c-3.3,7.4-6.1,15-8.5,22.8c-0.3,1-0.9,2.6,0.8,2
			c2.9-1.1,5.8-2.5,7.5-6c6.3-13.2,12.8-26.2,19-39.5c7.6-16.2,16.3-31.8,21.6-49.5C82.7,119.7,85,114.6,86.1,109
			c0.2-0.2,0.3-0.4,0.4-0.6c0,0-0.1-0.1-0.2-0.2C86.2,108.5,86.1,108.7,86.1,109z M258.4,173.9c0.7,0,1-0.6,1.4-1.1
			c9.9-13.5,19.8-27,29.2-41c6.5-9.8,13.2-19.3,18-30.6c4.6-10.9,9.6-21.5,14.7-32.1c2.8-5.9,4.3-11.8,3.2-18.9
			c-0.6,0.9-1,1.5-1.3,2.1c-12.7,25.1-27.8,48.4-42.2,72.1c-6.3,10.4-13.8,19.8-17.3,32.4C262.4,162.6,259.7,167.9,258.4,173.9
			c-0.2,0.2-0.3,0.4-0.4,0.6c0,0,0.1,0.1,0.2,0.2C258.2,174.4,258.3,174.2,258.4,173.9z M248.8,478c4.1-0.1,6.3-3.7,8.5-7
			c9-13.5,17.3-27.7,24.4-42.7c10.5-22.1,21.9-43.5,30.1-67c6.7-19.2,14.3-37.9,21.6-56.9c1.3-3.3,2.5-6.6,3.8-10
			c-0.8,0-1,0.5-1.2,0.9c-3.9,8.3-7.8,16.6-11.8,24.8c-6.8,14.1-13.5,28.2-20.3,42.3c-8.1,17-16.2,33.9-24.3,50.9
			c-6.6,13.7-13.1,27.4-19.7,41.1C256.2,462.3,252.5,470.2,248.8,478c0,0.1-0.1,0.2-0.1,0.3C248.7,478.2,248.8,478.1,248.8,478z
			 M359.2,323.5c0.9-0.2,1-0.8,1.2-1.3c5.9-12.9,12.6-25.2,19.1-37.7c12.1-23.1,27.1-43.9,38-68c8.3-18.4,17.3-36.4,26.1-54.5
			c6.8-14.1,13.7-28.1,20.3-42.4c5.8-12.6,13.1-24.4,15.6-39c0.4-2.5,0.7-4.5-0.1-6.7c-0.3-0.8-0.2-2-1.1-2.1
			c-0.8-0.1-1.1,1.1-1.4,1.9c-8.6,18-17.2,36-25.8,54c-7.3,15.2-14.6,30.5-21.9,45.7c-8.1,17-16.3,33.9-24.4,50.9
			c-7.5,15.7-15,31.3-22.5,47c-6.7,14-13.4,27.9-20,41.9C360.8,316.3,360.2,319.9,359.2,323.5z M262.8,294.1
			c2.5-2.2,3.6-5.2,4.7-8.1c9.4-24.8,19.2-49.5,29.3-73.9C311.7,176,327,140.2,344,105.5c8.4-17.2,17.2-34.2,27.2-50.2
			c3.7-6,7.4-11.8,9-19.3c1.3-5.7,3.3-11.2,5-16.8c0.3-1,1.3-2.1,0.2-3.2c-1-1.1-2.3-1.5-3.5-0.7c-3.8,2.6-7.5,5.3-9.8,9.9
			c-6.3,12.5-11.9,25.4-17,38.7c-6.9,18.1-14.2,36.1-21.5,54c-8.2,20.3-16.4,40.5-24.9,60.7c-10.1,24.1-20.5,48.1-30.7,72.2
			c-3.7,8.6-8.1,16.9-10.5,26.2C266.1,282.7,264.4,288.4,262.8,294.1z M369.2,66c-12.2,14.9-92.3,194.3-92.1,206.4
			C308.9,204.3,339.3,135.3,369.2,66z M240.2,264.8c-0.2-0.1-0.4-0.2-0.6-0.3c-2.6,5.5-5.3,11-7.9,16.5
			c-6.8,14.1-13.6,28.2-20.3,42.4c-6.5,13.9-13.7,27.3-19.5,41.5c-5.4,13.1-10.8,26.2-17.2,38.6c-1.8,3.4-1.2,7.7-1.4,11.6
			c5.3-10.3,10.2-20.7,15.2-31.1c6.8-14.1,13.6-28.2,20.3-42.4c3.9-8.3,8.2-16.3,11.6-25c4.6-11.9,9.1-23.8,13.6-35.7
			C236.1,275.5,238.1,270.2,240.2,264.8z M304.1,134.6c-0.3-0.2-0.6-0.4-0.8-0.6c-24.7,45.8-46.1,93.6-64.1,143.6
			c0.3-0.1,0.5-0.3,0.6-0.5c7.6-16,15.2-31.9,22.8-47.9c6.7-14,13.5-27.8,20-41.8c4.9-10.7,10.8-20.8,14.5-32.2
			C299.3,148.3,301.8,141.5,304.1,134.6z M222.9,356.9c4-5.6,8.1-11.1,11.2-17.4c2.9-5.8,5.7-11.6,8.4-17.6
			c2.9-6.5,6.3-12.6,8.3-19.6c4.1-14,8.6-27.9,12.8-41.8c1.6-5.3,3.2-10.5,4.8-15.8C248.9,279.6,236.8,318.7,222.9,356.9z
			 M166.3,162.2c1,0,1.2-0.6,1.5-1.1c7.7-11,13.5-23.5,19.1-36.1c4-9.2,8.3-18.3,12.5-27.4c5-11.1,10-22.1,15.1-33.2
			c0.3-0.6,0.8-1.2,0.5-1.9c-0.4-1.1-5.4-1.9-6-0.8c-2.1,3.9-5,7.2-6.5,11.6c-4,12-8.4,23.7-13.3,35.2c-6.3,14.8-14,28.8-19.3,44.3
			C168.8,155.8,167.5,158.9,166.3,162.2z M188,283.4c-1.8,1.8-2.3,4.5-3.3,6.8c-4.8,10.4-9.4,21-14.3,31.4
			c-4.7,10-9.6,19.9-15.3,29.2c-4.3,7-8.3,14.1-9.9,22.7c-0.7,3.7-1.8,7.3-1.9,11.7c3.5-3.2,6.7-5.7,8.6-10.1
			c4.2-9.6,8.7-19,12.9-28.5c3.2-7.4,7-14.4,9.7-22.1c1.8-5.2,3.4-10.5,5.1-15.8C182.4,300.3,185.2,291.9,188,283.4z M231.8,321.5
			c-0.2-0.1-0.4-0.2-0.6-0.3c-1.5,3-2.9,6-4.4,8.9c-7.3,15.2-14.6,30.4-22,45.6c-6.3,13-12.9,25.7-17.1,39.9c-0.3,1-1.1,1.9-0.7,3.9
			c0.4-0.9,0.5-1.1,0.6-1.4c5.3-10.7,11.3-20.8,17.3-30.9c3.1-5.4,7-10.2,9.2-16.2c4.2-11.7,8.4-23.5,12.6-35.2
			C228.4,331,230.1,326.3,231.8,321.5z M391.2,42.1c-0.2,0.2-0.5,0.3-0.7,0.6c-3.5,5.1-6.9,10.2-10,15.6c-3.4,6.1-7.3,11.8-9.6,18.7
			c-4,12.2-7.9,24.4-11.8,36.6c-1,3-1.9,6.1-2.9,9.1c0.2,0.1,0.4,0.2,0.6,0.3C369.6,96.9,382.3,70.7,391.2,42.1z M442.1,237.5
			c0.2,0.1,0.5,0.3,0.7,0.4c16.2-33.7,32.3-67.4,48.6-101.4c-3-0.1-4,2.1-5.1,4.2c-7,13.7-14.2,27.3-21,41.2
			c-5.8,11.9-12.8,23-16.7,36.1C446.7,224.6,444.3,231.1,442.1,237.5z M384.1,158c8-8.1,39-73.2,38.8-79.3
			c-3.7,5.8-7.3,11.1-10.6,16.7c-4.4,7.3-9.8,13.8-13,22.1c-3.6,9.2-6.9,18.5-10.3,27.7C387.4,149.2,385.9,153.2,384.1,158z
			 M368.3,401c-0.9,2-1.9,3.9-2.8,5.9c-1,1.9-2.2,2-3.3,0.3c-0.4-0.6-0.6-1.3-1.1-2.2c-9.9,18.5-20.7,35.9-33.8,51.3
			c1.2,0.5,1.8-0.3,2.6-0.7c5.2-3,9.8-7.2,14-11.9c9.7-10.9,17.4-23.7,24.8-36.7C369.8,405,370.9,403,368.3,401z M144.2,208.3
			c-1,0.4-1.5,1.4-2,2.2c-5.3,8.5-9.2,17.9-13.4,27.1c-5.9,12.7-11.8,25.2-18,37.7c-5,10.1-11.1,19.6-14.2,30.9
			c-0.2,0.6-0.7,1.2,0.4,2.4C115.2,276.7,130.2,242.9,144.2,208.3z M278.8,479.7c-0.2-0.2-0.3-0.3-0.5-0.5
			c-2.5,3.7-4.9,7.4-7.5,10.9c-1.3,1.8-0.5,2.2,0.8,2.7c4.1,1.3,8.1,0.8,12-1.3c6.8-3.6,11.8-9.8,16.3-16.7c0.9-1.3,0.2-1.7-0.6-2.1
			c-1.9-1-4.1-1.5-5.6-3.3c-1.7-2-2.5-1.2-3.7,0.5c-3,4.5-6.1,8.8-9.3,13.2c-0.5,0.7-1.1,1.6-2.1,0.9c-1.1-0.8-0.9-1.7-0.4-2.8
			C278.5,480.8,278.7,480.3,278.8,479.7z M300.1,243.3c-0.2-0.1-0.4-0.3-0.6-0.4c-0.6,1-1.3,1.9-1.9,2.9c-3,4.9-6,9.7-9,14.6
			c-2.8,4.5-6,8.8-8.3,13.7c-8.3,17.2-16.2,34.6-24.3,51.9c-0.6,1.2-1.7,2.3-1.4,3.9c0.6,0,0.7-0.5,0.9-0.9
			c13.6-24.1,26.8-48.5,40-72.9C297.5,252.2,298.7,247.7,300.1,243.3z M135,33.1c-1.1-0.1-1.4,0.3-1.6,0.7c-2.4,3.6-5,7.2-7.3,10.9
			c-3,4.7-6.3,9.1-7.8,15c-3.4,13.1-7.1,26-11.1,38.8c-0.4,1.3-1,2.5-0.8,4.5C118.3,80.8,125.8,56.7,135,33.1z M88.7,198.9
			c-0.2-0.2-0.4-0.3-0.6-0.5c-2.7,5.8-5.4,11.5-8.1,17.3c-5.8,12.3-11.5,24.6-17.3,36.8c-3.7,7.9-7.3,15.8-11,23.7
			c-0.3,0.6-1,1.4-0.4,2.1c0.5,0.6,1.3,0.1,1.9-0.2c2.2-1.2,3.9-3,5-5.6c3.8-8.5,7.5-17,11.3-25.5c3.3-7.4,6.5-14.7,9.9-22
			C83.1,216.7,85.5,207.6,88.7,198.9z M170.6,374.9c-0.6,0.6-0.9,0.8-1,1c-5.1,10.9-10.1,21.8-17,31.4c-1.1,1.6-1.8,3.8-0.9,6.1
			c1.2,3.1,4.1,5.4,6.3,4.9c3.7-0.9,5.8-3.6,5.9-7.9c0.1-7.5,1.4-14.7,3.2-21.8C168.1,384.3,169.3,379.9,170.6,374.9z M223.7,265
			c-13.1,17.8-50.3,103.3-51.3,117.5C187.3,342,205.8,303.7,223.7,265z M238,407.7c-4.6,6.6-9.2,13.1-14.4,19
			c-0.4,0.4-0.7,0.9-0.9,1.4c-4.3,8.5-8.6,17-12.8,25.5c-0.5,1-2,2.1-0.9,3.2c0.9,0.9,2.4,0.5,3.6,0.2c0.9-0.2,1.2-1.4,1.6-2.2
			c6.6-12.2,13.2-24.5,19.8-36.7C235.9,414.9,237.4,411.5,238,407.7z M295,346.9c3-5,6-8.9,8.1-13.7c2.9-6.9,5.7-13.9,8.6-20.8
			c4.8-11.3,9-22.9,13.5-34.5c0.2-0.6,0.9-1.3,0-2.2C313.7,298.4,302.2,320.8,295,346.9z M386.7,351.5
			c15.3-23.7,25.1-50.6,33.5-78.5C408.1,298.6,398.3,325.6,386.7,351.5z M369,121.1c-1,0-1.2,0.6-1.4,1
			c-7.2,14.3-14.6,28.6-21.6,43.1c-6.2,12.7-13.4,24.9-17.7,38.8c-0.5,1.6-1.1,3.1-1.7,4.6c-0.5,1.5-1,3.1-1.5,4.6
			C340.4,182.9,354.9,152.3,369,121.1z M340.1,351.5c-0.8,0.1-0.9,0.6-1.1,1c-13.8,27.3-27.5,54.5-41.4,81.7
			c-2.3,4.4-3.3,9.2-4.2,14.4C295.2,446.3,339.3,354.3,340.1,351.5z M63.5,102.4c-0.2-0.2-0.5-0.3-0.7-0.5
			c-4,8.1-8.6,15.7-12.5,23.9c-10.2,21.6-20.6,43-30.9,64.6c-0.3,0.6-1.7,1.5-0.4,2.3c0.9,0.6,1.5-0.4,1.9-1.3
			c5.5-11.4,11.2-22.8,16.7-34.2c6.6-13.7,13.1-27.4,19.6-41.1C59.3,111.5,61.4,107,63.5,102.4z M346.2,447c-1.4-0.2-1.8,1-2.6,1.7
			c-5.8,5.8-11.8,11.2-19.4,12.8c-2.7,0.6-5.3,1.1-7.8,2.6c-1.5,0.9-3.1,1.5-4.8,1.4c-2.7-0.1-3.6,2.4-4.7,4.7
			c-0.5,1,0.2,1.2,0.9,1.2c2.3,0,4.5,0.2,6.8-0.2c8.4-1.7,15.4-6.6,22-12.8C340,455,343.1,451,346.2,447z M308.4,401.5
			c13.4-25.3,24.8-51.8,35.2-79C330.6,348.1,318.7,374.3,308.4,401.5z M328.3,53.2c0.3-0.2,0.6-0.2,0.6-0.3
			c3.3-7.1,6.5-14.2,9.8-21.4c0.8-1.8,0.5-3.1-0.6-4.5c-1.8-2.3-4-3.8-6.5-4.8c-1.6-0.7-2.9-0.6-4,1.6c3.6,1.1,3.8,4.3,3.5,7.8
			c-0.3,4-1.8,7.6-3.2,11.2c-0.4,1-1.1,1.9-0.8,3C327.9,48.1,328.3,50.6,328.3,53.2z M174.4,425.8c10-22.4,22.9-42.5,29.7-66.5
			c-2.1,3.8-4,7.7-5.8,11.6c-8.1,16.9-16.2,33.7-24.3,50.6C173.4,422.7,173.1,424,174.4,425.8z M254.2,161.1
			c11.8-19.8,19.9-41.8,27.5-64.1C271.7,117.8,262,138.8,254.2,161.1z M257.4,442.6c-1-0.2-1.2,0.6-1.6,1.1
			c-5.6,7-9.2,15.6-13.3,23.9c-2.1,4.2-1.6,8.6-1.3,13C247.6,468.5,253.3,456.1,257.4,442.6z M324.2,438.9c4-8.3,7.9-16.7,12-24.9
			c2.1-4.3,4.6-8.5,3.1-14c-0.2-0.6,0.1-1.6-0.5-1.8c-0.9-0.3-1,0.8-1.3,1.5c-3.6,8.4-7.2,16.7-10.2,25.4
			C325.7,429.5,324.3,434,324.2,438.9z M164.9,366.5c4.1-4.3,25.2-42.9,25.3-50.2c-0.8,1.2-1.5,2.3-2.2,3.4
			c-7.8,12.7-13.6,26.7-21.1,39.7C165.8,361.4,165.2,363.8,164.9,366.5z M261.3,280.1c10-20.2,13.6-43.3,20.7-64.8
			C273.6,236.2,267.9,258.3,261.3,280.1z M172.8,70.2c0.2,0.1,0.3,0.1,0.5,0.2c5.1-8.3,10.1-16.6,15.2-24.9c0.4-0.6,0.7-1.1,0.3-1.9
			c-0.9-1.7-4.3-1.7-5.2,0.1c-2.5,5.1-5.2,10.2-7.4,15.5C174.8,62.7,174,66.6,172.8,70.2z M163.6,277.5c7.2-14.3,16-27.4,20-43.7
			C176.9,248.3,167.6,261.2,163.6,277.5z M140.4,98.3c-0.3-0.1-0.5-0.3-0.8-0.4c-8.8,19.8-17.7,39.5-26.5,59.3
			c0.3,0.2,0.6,0.3,0.8,0.5C122.7,137.9,133.7,119.5,140.4,98.3z M184.3,369.2c7.9-16,15.7-32.1,20.5-49.9
			C197,335.5,190,352,184.3,369.2z M153.6,49.7c0.9-1.7,1.5-2.8,2.1-4c3.1-6.5,6.1-12.9,9.2-19.4c0.5-1.1,1-2.7,2.6-2
			c0.5,0.2,1,1.2,1.3,0c0.2-1.1-0.7-1.2-1.3-1.4c-2-0.6-6.2,1.3-7.3,3.5C156.7,33.4,153.6,40.6,153.6,49.7z M255.5,132.8
			c-0.3-0.2-0.7-0.3-1-0.5c-4.3,13.4-8.5,26.9-12.8,40.3c0.2,0.1,0.4,0.2,0.7,0.3C247.8,160,254.8,147.9,255.5,132.8z M389.2,70
			c2.4-2.4,4.3-5.1,5.2-8.7c2.2-8.5,4.6-16.9,6.9-25.4c0.2-0.8,0.7-1.6,0.3-2.6c-0.3-0.8-0.2-2-1.2-2.1c-1-0.1-0.9,1.1-1.1,2
			c-1.5,7.4-3.6,14.6-5.9,21.7C392,59.9,389.9,64.6,389.2,70z M437.9,66.8c0.8-0.6,1-0.6,1.1-0.8c4-8.3,8-16.6,12-25
			c0.4-0.8,0.7-1.9-0.4-2.2c-1-0.3-2-1.2-3.3,0.5C441.6,47.2,441.3,57.3,437.9,66.8z M100.5,309c-7.3,7.1-10.3,16.4-10.2,27.8
			C95.1,327.9,98.6,318.8,100.5,309z M394.9,103.1c-6.6,15.2-13.6,30.2-20.2,45.4C384.5,135.2,389.5,119.1,394.9,103.1z
			 M214.7,301.9c0.2,0.1,0.4,0.2,0.6,0.4c6.7-14.6,13.3-29.3,20-43.9c-0.2-0.2-0.5-0.3-0.7-0.5C227.5,272.2,219.1,285.7,214.7,301.9
			z M171.3,363.6c-6.7,9.5-13.5,19-15.1,32.3C162,385.5,166.9,374.7,171.3,363.6z M325.3,26.9c-0.2,0-0.7,0-1,0.3
			c-1.7,1.9-3.4,3.8-4.9,5.8c-0.6,0.8,0,1.4,0.6,1.8c1.7,1.3,3.2,2.8,4.4,4.7c0.8,1.2,1.1,0.7,1.5-0.3c1.1-2.6,1.9-5.2,2.4-8
			C328.8,28.6,327.7,27,325.3,26.9z M303.5,222.7c9.1-12.5,14.4-27.4,19.1-42.7C316.3,194.3,309.9,208.5,303.5,222.7z M159.9,137.5
			c0.3,0.2,0.5,0.4,0.8,0.6c7.9-15.8,15.1-32,21.4-48.8c-0.2-0.1-0.4-0.3-0.6-0.4C174.3,105.1,167.1,121.3,159.9,137.5z M412.5,88.5
			c5.7-10.3,14.8-18.2,16.4-31.5C422.8,67,417.4,77.7,412.5,88.5z M340.5,35.1c-4.7,10.6-9.7,20.5-13.5,31.2
			c4.6-7.6,9-15.4,13.1-23.4C341.2,40.8,341.6,38.1,340.5,35.1z M142.6,370.6c-3.9,4.2-7,8.9-7.6,15.4c-0.1,1.1-0.9,3,0.7,3.1
			c1.4,0.1,3.7-0.1,4-2.1C140.7,381.6,141.5,376.1,142.6,370.6z M415.5,57.5c0.3,0.1,0.5,0.2,0.8,0.3c4-5.1,5-11.9,7.2-18.1
			c-2.6,1.1-5.8,2-6.6,4.6C415.7,48.4,415.9,53,415.5,57.5z M111.6,322.3c-0.8-0.1-1,0.3-1.3,0.7c-2.3,3.8-4.6,7.5-6.8,11.3
			c-1.7,2.9-3.4,5.9-5,8.9c-0.7,1.3-1.1,3.3,0.3,4.2c1.3,0.8,1.9-1,2.5-2.2c2-4.3,4-8.5,5.9-12.8C108.6,329.1,110.6,326,111.6,322.3
			z M409.6,28.4c-3.1,8.5-3.5,13-1.5,18.7c1.4-1.6,4-2.4,4.1-4.5C412.2,37.9,411.6,33.1,409.6,28.4z M255.9,478.8
			c-0.3,0.2-0.6,0.3-0.8,0.5c-3.7,4.3-7.1,8.9-12,11.4c-0.8,0.4-0.8,1.1-0.3,1.9c0.6,0.9,1.1,1.8,1.7,2.6c1.1,1.6,1.9,1.7,3.1-0.2
			C250.6,489.8,253.5,484.5,255.9,478.8z M164.4,174.4c-0.2-0.1-0.4-0.2-0.6-0.4c-8.5,11.9-12.4,26.9-18.5,40.4
			c0.2,0.1,0.5,0.3,0.7,0.4C152.1,201.3,158.3,187.9,164.4,174.4z M195.3,300.8c8-13.6,12.2-29.5,18.1-44.3
			C206.5,270.8,201.4,286.1,195.3,300.8z M249.2,329.2c-6.4,8.3-9.9,18.3-12.5,28.9C241.1,348.5,247,340,249.2,329.2z M126.7,70.6
			c5.3-8.5,12.5-15.8,13.3-27.4C135,52,130.6,61.2,126.7,70.6z M499.5,146.3c-0.8,4.1-1.8,7.6-3,11c-1.6,4.2-1.5,4.2,1.8,6.3
			c1.1,0.7,1.7,0.6,2-0.9c0.6-3.1,1.2-6.2,1.1-9.3C501.2,151.2,501.1,148.8,499.5,146.3z M377.3,56.5c0.6-0.4,0.8-0.5,0.9-0.6
			c4.1-6.9,8.4-13.5,13.1-19.7c1-1.3,0.6-2.4-0.1-3.7C384.9,39.1,380.2,46.7,377.3,56.5z M420.2,24.8c-0.5,3.7-0.7,7.3-1.5,10.9
			c-0.4,1.7,0.2,2.3,1.6,1.5c1.6-0.9,3.4-1.6,5-2.7c1.2-0.8,2-2.5,1-4C424.6,28,422.9,25.8,420.2,24.8z M18,116.2
			c6.8-9.3,10.5-20.5,14.1-31.8C26.7,94.5,22.1,105.2,18,116.2z M230.1,467.3c8.5-3.7,8.6-13.3,11.5-20.9c-0.2-0.2-0.5-0.3-0.7-0.5
			C237.4,453,233.7,460.1,230.1,467.3z M217.2,456.3c1.5,0.4,2.6,0.1,3.1-0.9c4-7.4,8.2-14.7,10.6-23c-0.2-0.1-0.4-0.3-0.6-0.4
			C226,440,221.7,448,217.2,456.3z M78.6,31.5c2.8-4.1,4.9-7.7,7.6-10.6c0.9-1,0.4-1.4-0.5-1.8c-2.8-1.1-7.6,1-9.5,4.3
			C79.4,24.8,79.4,24.8,78.6,31.5z M144.3,42.7c2.1-3.6,4.1-7.3,6.3-10.9c1-1.6,0.8-3.1,0.1-4.7c-0.5-1.3-0.9-1.6-1.9-0.3
			C145.3,31.2,144.2,36.6,144.3,42.7z M131.5,182.9c-0.3-0.1-0.5-0.3-0.8-0.4c-4.5,10-9,20-13.6,30.1c0.3,0.2,0.5,0.3,0.8,0.5
			C124.3,204.2,126.9,192.9,131.5,182.9z M210.2,417.5c-5,8.4-10.6,16.4-15.4,25.1C202.1,436.1,206.3,426.9,210.2,417.5z
			 M333.6,18.8c1.7,1.2,3.1,2.4,4.6,3.2c1.3,0.7,1.8,3.6,3.4,2.6c1.1-0.7,1.5-3,2.2-4.5c0.1-0.2,0.1-0.4,0.2-0.5
			c0.7-1.2,0.1-1.7-0.8-2.1C340,16,337,17.1,333.6,18.8z M319.2,202.5c0.2,0.2,0.5,0.4,0.7,0.6c5.2-10.2,12.4-18.9,15.9-30.3
			c-0.2-0.1-0.4-0.3-0.6-0.4C329.9,182.4,324.5,192.4,319.2,202.5z M392.5,227.4c-5.3,5.7-14.6,25.9-14.7,30.9
			C382.8,247.8,387.6,237.6,392.5,227.4z M33,240.2c-1.5-0.8-2.8,0.5-4.1,0.4c-0.6,0-0.9,0.3-1,1c-0.7,3,1.9,12.2,4.1,14.2
			c0.4,0.3,0.7,0.9,1.2,0.2c0.6-0.9,0-4.4-0.9-5c-2.6-1.7-2.8-2.2-1.5-5.5C31.4,243.7,32.7,242.3,33,240.2z M234.4,405.6
			c3.9-3.3,12.8-19.3,12.9-22.6C241.7,389.5,238.2,397.6,234.4,405.6z M95.2,336.4c-0.2-0.1-0.4-0.2-0.6-0.3
			c-1.1,2.3-2.1,4.6-3.3,6.9c-0.6,1.2-0.6,2.3-0.3,3.6c0.7,2.6,1.6,5,3.1,7c0.6,0.8,1.3,2,2.2,1.4c0.8-0.6,0.2-2-0.2-3
			c-0.3-0.8-0.8-1.2-1.4-1.5c-1.7-0.8-2-2.3-1.2-4C95.1,343.3,94.4,339.7,95.2,336.4z M25.4,148.3c-4.7,5.5-11.3,21.9-11.3,27.7
			C18,166.3,21.7,157.3,25.4,148.3z M399.3,101.4c3.8-8,6.5-16.6,8.9-25.4C402.2,83,402.7,93.1,399.3,101.4z M432.2,251.9
			c-0.3-0.1-0.5-0.3-0.8-0.4c-3.7,10.4-7.3,20.9-11,31.3c0.2,0.1,0.5,0.2,0.7,0.3C426.1,273.3,428.6,262.3,432.2,251.9z M115.7,51.1
			c0.2,0.1,0.5,0.3,0.7,0.4c4.6-9.8,5.9-20.9,9.1-31.2c-0.2-0.1-0.5-0.2-0.7-0.3C121.7,30.4,118.7,40.8,115.7,51.1z M84.5,71.3
			c0.2,0.1,0.4,0.3,0.5,0.4c3.9-7.8,7.7-15.7,11.6-23.5c-0.2-0.1-0.4-0.3-0.6-0.4C91.3,55,86.9,62.4,84.5,71.3z M315,271.2
			c4.6-6.9,9.6-13.6,11.4-22.5C322,255.8,318.4,263.4,315,271.2z M279.1,463.6c3.5-6.7,6.9-13.5,10.4-20.2
			C284,448.7,280.2,455.2,279.1,463.6z M149.5,392.9c-3.4,1.6-4.7,4.9-5.4,7.9c-0.5,2,1.1,4.5,3.1,6.2
			C147.6,402.2,148.2,397.8,149.5,392.9z M148.2,327c5.3-9,10-18.4,13.9-28.4C157.7,308.2,151.9,316.9,148.2,327z M13.3,204.8
			c1.1-1.6,2.1-3.1,3-4.5c0.4-0.5,0.7-1.2,1-1.7c0.9-1.6,0.8-2.5-1.1-2.7c-3.8-0.3-5.2,1.6-4.2,5.9
			C12.2,202.7,12.4,203.7,13.3,204.8z M415.8,35.4c0.7-3.9,1.4-6.9,1.3-10.1c-0.1-0.9,0-1.9-1-2c-1.4,0-2.8-0.4-4.1,0.4
			c-0.1,0.1-0.1,0.8,0.1,1C413.7,27.7,414.6,31.2,415.8,35.4z M59.3,209.8c4.7-6.6,8.2-14,10.9-22C65.7,194.6,62.7,202.3,59.3,209.8
			z M103.1,234.4c4.6-8.1,8.3-16.7,11.8-25.5C112.3,212.3,103.2,232,103.1,234.4z M434.8,53.9c2.4-3.9,3.8-7.8,5.1-11.6
			c0.2-0.7,1-1.5,0.3-2.1c-0.7-0.6-1.5,0.2-2,0.8C435.6,44.4,434.2,48.4,434.8,53.9z M226.1,461.7c-0.9,0.8-5.2,6.6-5.6,7.4
			c-0.3,0.7-0.4,1.3,0.4,1.6c2.3,1.2,5.6-1.2,5.6-4.2C226.5,465,226.2,463.4,226.1,461.7z M364.7,399.3c0.2,0.2,0.4,0.3,0.6,0.5
			c3.2-6.7,6.4-13.4,9.6-20c-0.2-0.2-0.5-0.3-0.7-0.5C370.4,385.5,366.8,391.9,364.7,399.3z M170.5,411.7c-4.4,3.2-4.3,6.9-1.7,13.2
			C171.2,420.9,169.1,416.3,170.5,411.7z M196,409.9c3.9-5.8,8.1-11.4,10.5-18.3C202.5,397.3,198.9,403.4,196,409.9z M169.5,401.7
			c4-5.7,5-12.9,6.7-19.7C173.4,388.3,171.3,394.9,169.5,401.7z M432.4,73.9c2.2-6,4.2-12.1,5.6-18.4C435,61.1,432.5,67,432.4,73.9z
			 M83.1,301.4c-0.2-0.2-0.4-0.3-0.6-0.5c-2.7,4.4-5.4,8.8-8.1,13.2c-0.3,0.5-1.3,1.2-0.3,1.9c0.6,0.4,1.3,0.1,1.7-0.7
			C78.2,310.7,80.7,306,83.1,301.4z M83,229.2c0.2,0.1,0.4,0.3,0.6,0.4c3.5-6.8,6.9-13.7,9.9-20.8c-0.2-0.1-0.4-0.3-0.6-0.4
			C89.7,215.4,86.4,222.3,83,229.2z M202.5,50.6c-0.7-1.6-0.2-3.8-2-4.5c-0.4-0.2-3,5.3-2.9,6c0.1,0.9,0.7,1,1.1,0.6
			C199.9,51.9,202.2,53.5,202.5,50.6z M200.5,56.2c-4.6,0.7-5.9,2.1-5.5,5.6c0.1,1.1,0.3,1.3,1.2,0.8
			C198.6,61.4,199.8,59.2,200.5,56.2z M305.4,465.4c-0.3-1.1-1.4-1.3-2.2-1.9c-0.3-0.2-3.1,4.9-3,5.5c0.3,1.2,1.3,1.1,2,1.2
			C303,470.3,305.5,466.5,305.4,465.4z M42.7,236.4c-4.3,1.5-5.5,3.8-5.3,9.6C39.9,243.4,40.8,239.9,42.7,236.4z M159.3,170.8
			c-2.8,3.6-6.9,12.8-7,15.5C155.8,181.7,157.3,176.1,159.3,170.8z M495.7,124.2c-0.2-0.1-0.4-0.2-0.6-0.3c-1.1,2.1-2.3,4.3-3.4,6.4
			c-0.4,0.7-1.3,1.5-0.3,2.2c0.7,0.5,1.5,0.4,2.2-0.6C495,129.6,495.8,127.1,495.7,124.2z M296.6,168.5c-0.2-0.1-0.5-0.2-0.7-0.3
			c-2.1,6.6-4.3,13.3-6.4,19.9c0.2,0.1,0.4,0.2,0.7,0.3C292.7,182,294.4,175.1,296.6,168.5z M190,226.8c0.2,0.1,0.5,0.2,0.7,0.3
			c2.3-6,4.5-12,6.3-18.3c-0.2-0.1-0.5-0.2-0.7-0.4C194.2,214.6,192.1,220.7,190,226.8z M38.6,227.2c-2.6,1.9-3.6,5.2-5.4,8.6
			C38.4,235.5,36.8,229.9,38.6,227.2z M189.8,179.7c-2.8,4.2-4.2,9.2-6,14C187.1,189.7,188.5,184.8,189.8,179.7z M132.8,27.5
			c0.2,0.2,0.5,0.3,0.7,0.5c1.6-2.4,3.3-4.9,4.9-7.3c0.5-0.8,0.6-1.6-0.1-2.3c-0.7-0.6-1.2,0-1.4,0.5
			C135.4,21.7,134.1,24.6,132.8,27.5z M289.1,351.2c-2.1,4.6-4.1,9.2-6.2,13.9C286.9,361.6,287.8,356.2,289.1,351.2z M84.6,322.8
			c3.9-1.8,4.6-5.4,5.3-9.1C87.7,316.1,85.9,318.9,84.6,322.8z M18.2,146.6c0.3,0.1,0.5,0.2,0.8,0.3c1.8-5.5,3.6-11,5.4-16.5
			c-0.2-0.1-0.4-0.2-0.6-0.3C21.9,135.6,20.1,141.1,18.2,146.6z M206.4,178.2c2.6-3.5,3.3-8,4.5-12.2
			C208.8,169.8,207,173.7,206.4,178.2z M225.4,79.5c-1.1,3.3-2.2,6.6-3.3,9.9c0.2,0.1,0.4,0.2,0.6,0.3
			C223.7,86.3,227.3,84.2,225.4,79.5z M95.5,32.1c0.2,0.1,0.4,0.3,0.6,0.4c2-4.5,4.1-9,6.1-13.4c-0.2-0.1-0.4-0.3-0.6-0.4
			C99.5,23.2,97.1,27.4,95.5,32.1z M64,306.6c1.1-2.1,1.9-3.5,2.6-5c0.2-0.5,0.6-1.3-0.2-1.3c-1,0-2,0.2-2.9,0.7
			c-0.8,0.4-0.5,1.5-0.3,2.4C63.3,304.1,63.5,304.9,64,306.6z M423.4,91.9c2.5-2.9,2.8-6.7,3.5-10.4
			C424.7,84.4,424.1,88.2,423.4,91.9z M136,347.1c2.4-2.4,4-5.5,5-9.6C137.9,340.1,137.1,343.7,136,347.1z M298,459.6
			c-0.1-0.1-0.3-0.3-0.4-0.4c-1.1,1.5-2.1,3-3.2,4.4c-0.6,0.8-0.1,1.5,0.2,2.1c0.3,0.5,0.7,1,1.2,0.8c0.8-0.2,0.5-1.1,0.7-1.7
			C297.1,463.1,297.5,461.4,298,459.6z M404.1,45c-1,3.5-2.5,5.9-2.9,9.2C404.7,51.4,405,50.7,404.1,45z M457,63.6
			c2-0.7,3.7-2.1,5.6-2.4c0.1,0,0.2,0,0.2-0.1c0.2-0.3,0.6-0.5,0.6-0.8c0.1-0.4-0.3-0.6-0.6-0.7C460.8,59,457.8,60.9,457,63.6z
			 M439.6,283.2c2.5-3.2,3.6-7.3,4.9-11.2C442.6,275.5,440.6,279,439.6,283.2z M232.4,84.4c-0.7,2.3-1.2,3.9-1.5,5.5
			c-0.2,0.8-0.6,2.1,0.7,2.3c1.2,0.1,1.6-0.8,1.6-2.1C233.3,88.4,232.9,86.8,232.4,84.4z M32.2,230.6c-0.6-0.1-0.8-0.1-1.1-0.1
			c-2.4-0.4-2.2,1.9-2.7,3.6c-0.2,0.6-0.2,1.6,0.5,1.6c1.4,0,1.5-1.8,2.3-2.8C31.6,232.3,31.8,231.5,32.2,230.6z M45.3,258.9
			c-0.2-0.1-0.3-0.3-0.5-0.4c-1.3,2-2.7,4-4,6.1c-0.3,0.5-0.7,1.3-0.1,1.8c0.7,0.6,1-0.1,1.3-0.7C43.1,263.5,44.2,261.2,45.3,258.9z
			 M227.4,474c-1,0.3-1.1,1-1.4,1.6c-0.4,0.8-1.3,1.6-0.2,2.4c0.8,0.5,1.7,1.6,2.5,1c0.9-0.7-0.1-1.7-0.3-2.6
			C227.8,475.6,227.6,474.9,227.4,474z M153.6,25.3c0.9-1.1,1.2-2.5,1.7-3.8c0.2-0.4,0.2-1-0.2-1.4c-0.4-0.4-0.8,0-1.1,0.2
			C152.1,21.4,152,22.6,153.6,25.3z M393.4,19.8c-0.9,0-1.1,0.8-0.9,1.4c0.2,1.2,0,2.8,1.3,3.1c0.8,0.2,1.6-0.8,1.6-1.9
			C395.3,21.1,394.3,20.4,393.4,19.8z M50.5,284.2c0.3,0.7,0.2,2.5,0.9,2.4c1.3-0.2,1.6-2,1.9-3.4c0.2-1.2-0.8-0.9-1.4-1
			C51,282.2,50.3,282.5,50.5,284.2z M491.2,118.4c1.7-0.1,3.2,0.7,3.9-0.6c0.4-0.7-0.3-3-0.9-3C492.8,114.9,492.3,116.7,491.2,118.4
			z M123.2,376.6c-0.8,0.7-2.6,0.1-2.6,1.7c-0.1,1.1,1.4,1.4,2.4,1.5c1.4,0.2,1.3-1,1.3-2.1C124.3,376.9,124.2,376.2,123.2,376.6z
			 M404.9,22c0-1-0.5-1.3-1-1.1c-1.2,0.5-2.6,0.9-2.9,2.7c-0.1,0.7,0.5,1.6,1,1.2C403.2,24.1,404.6,23.6,404.9,22z M145.3,77.4
			c-0.2-0.2-0.5-0.3-0.7-0.5c-1.3,3-2.5,5.9-3.8,8.9c0.2,0.1,0.5,0.3,0.7,0.4C142.8,83.3,144.1,80.3,145.3,77.4z M154.9,387.6
			c-0.2-0.1-0.4-0.2-0.7-0.3c-0.9,3.3-1.9,6.6-2.8,9.8c0.2,0.1,0.4,0.2,0.6,0.3C153,394.2,154,390.9,154.9,387.6z M140.3,399.8
			c0-1.5-0.6-2.2-1.9-2.1c-0.5,0-1.2,0-1,0.9c0.3,1.4,1.1,2.5,2.2,2.9C140.2,401.6,140.3,400.5,140.3,399.8z M70.9,99.7
			c1.4-2.4,3-4.6,3.4-7.5C72.6,94.4,71.5,96.9,70.9,99.7z M126.4,30c1.3-2.3,1.9-4.8,1.9-7.5C127.2,24.8,126.7,27.3,126.4,30z
			 M92.4,23.5c1.1-1.6,2.1-3.2,2.7-5.8C92.4,19,92.9,21.6,92.4,23.5z M106.9,367.2c2.4,0.1,3-0.4,3.2-2.5c0-0.5,0.2-1.1-0.3-1.3
			c-0.5-0.2-0.8,0.2-0.9,0.7C108.6,365.3,108,366.2,106.9,367.2z M146.4,354.9c2.1-1.8,3.1-4,2.9-6.2
			C148.3,351,147.3,352.9,146.4,354.9z M135.9,392.6c1.6,1.4,2.5,1.9,3.6,1.2c0.4-0.3,0.4-1,0.1-1.3
			C138.5,391.2,137.6,392.7,135.9,392.6z M178.7,258.8c-1,2-2.3,3.8-2.4,6.3C177.5,263.3,178.4,261.2,178.7,258.8z M434.6,37.2
			c0-0.8-0.2-1.3-1-1.3c-0.6,0-1.1,0.4-0.8,1.1c0.2,0.8,0.1,2.1,1,2.1C434.6,39,434.6,37.9,434.6,37.2z M179,258.1
			c1.3-2.1,2-3.8,2.3-5.8C180.2,253.8,179.3,255.4,179,258.1z M237.2,342.9c-1.7,0.6-2.4,2.1-2.9,3.6c0.2,0.1,0.4,0.3,0.6,0.4
			C235.7,345.6,236.5,344.3,237.2,342.9z M408,274.5c0.2,0.2,0.4,0.3,0.7,0.5c0.6-1.4,1.2-2.8,1.8-4.1c-0.2-0.1-0.4-0.3-0.6-0.4
			C409.3,271.8,408.7,273.1,408,274.5z M408,276.1c-0.2-0.1-0.5-0.2-0.7-0.3c-0.6,1.4-1.2,2.8-1.7,4.2c0.2,0.1,0.4,0.2,0.6,0.4
			C406.8,278.9,407.4,277.5,408,276.1z M62.4,89.2c-0.2-0.1-0.4-0.2-0.6-0.3c-0.6,1.4-1.2,2.8-1.8,4.2
			C61.4,92.2,61.9,90.7,62.4,89.2z M116.2,365c0.5-1.2,1-2.5,1.8-4.4C115.8,361.7,115.7,363.3,116.2,365z M78.1,45.2
			c1.4-1.8,1.9-3.3,2.1-4.9C79.2,41.5,78.5,42.8,78.1,45.2z M179.9,427.5c-1.2,1.2-1.9,2.2-1.8,4.2
			C179.4,430.5,179.8,429.3,179.9,427.5z M390.2,25.6c-0.5,1.4-0.9,2.3-1.4,3.9C390.4,28.5,391.3,27.8,390.2,25.6z M165.2,82.3
			c-0.9,1.6-1.6,2.4-1.5,4.4C164.6,85.3,165.5,84.6,165.2,82.3z M454.5,221.4c-1.1,1.1-1.4,2.1-1.4,3.4
			C453.9,223.9,454.5,223,454.5,221.4z M145.9,74.5c0.2,0.1,0.4,0.2,0.6,0.3c0.6-0.9,1.2-1.8,0.7-3.2
			C146.7,72.6,146.3,73.6,145.9,74.5z M179.9,326.5c0.6-0.9,1.4-1.6,1.3-3.2C180.2,324.2,179.9,325.3,179.9,326.5z M70.5,100.5
			c-1.2,1.1-1.6,2.2-1.8,4C69.7,103.2,70.2,102.2,70.5,100.5z M439.2,143.5c0.2,0.1,0.4,0.2,0.6,0.3c0.5-0.9,1.2-1.7,0.9-3.9
			C440.1,141.6,439.6,142.6,439.2,143.5z M58.6,96.8c-0.8,0.8-1.4,1.7-1.4,3.6C58.2,99,58.6,98,58.6,96.8z M448.6,234.3
			c0.8-0.8,1.4-1.7,1.5-3.3C448.9,231.9,448.6,233,448.6,234.3z M75.6,150.7c0.9-1.2,1.3-2,1.4-3.7C76,148.2,75.6,149,75.6,150.7z
			 M221.6,460.8c-1.1,0.3-1.6,0.9-1.8,2.3C220.9,462.8,221.4,462.2,221.6,460.8z M341.4,347.9c-0.6,1.1-1.3,1.5-0.8,2.7
			C341.2,350,341.6,349.5,341.4,347.9z M412.4,342.7c0.7-0.5,1.1-1,0.8-2.1C412.5,341.2,412.1,341.7,412.4,342.7z M268.6,351.9
			c-0.7,0.6-1.1,1.1-0.8,2.5C268.3,353.5,268.9,353,268.6,351.9z M456.4,217.2c-0.6,0.9-1.3,1.3-0.7,2.3
			C456.3,219,456.7,218.5,456.4,217.2z M112.8,287.4c0.8-1.1,1.3-1.5,1-2.5C113,285.1,113,285.8,112.8,287.4z M405.2,281
			c-0.4,0.4-0.6,0.5-0.7,0.8c-0.1,0.4-0.9,1.1,0.1,1.2C405.1,283,405.4,282.1,405.2,281z M125.5,18.9c0.4-0.9,1-1.5,0.5-2.5
			C125.3,17.1,125.2,17.8,125.5,18.9z M297.5,166c-0.1-0.3-0.2-0.5-0.3-0.7c-0.2,0.3-0.5,0.5-0.6,0.8c-0.1,0.3-0.2,0.9,0.3,0.7
			C297.2,166.8,297.3,166.3,297.5,166z M222.4,461c0.3-0.9,0.4-1.2,0.4-1.6c0-0.1-0.3-0.4-0.4-0.4c-0.2,0-0.4,0.2-0.5,0.4
			C221.8,459.6,222,459.9,222.4,461z M439.1,81.5c0.2-0.3,0.4-0.5,0.5-0.7c0-0.2-0.2-0.4-0.2-0.6c-0.2,0.2-0.4,0.3-0.5,0.6
			C438.9,80.9,439,81.2,439.1,81.5z M433,249.6c-0.1-0.2-0.2-0.3-0.3-0.5c-0.2,0.2-0.4,0.3-0.5,0.6c-0.1,0.2,0,0.6,0.3,0.5
			C432.7,250.1,432.8,249.8,433,249.6z M282.3,367.5c0.2-0.2,0.4-0.4,0.4-0.7c0-0.1-0.1-0.5-0.1-0.5c-0.4-0.1-0.6,0.3-0.6,0.7
			C282.1,367.2,282.2,367.3,282.3,367.5z M258.8,357.7c0.2-0.4,0.4-0.6,0.4-0.8c0-0.2-0.2-0.4-0.3-0.5c-0.1,0.2-0.4,0.4-0.4,0.6
			C258.5,357.2,258.7,357.4,258.8,357.7z M319,204.2c-0.1-0.2-0.1-0.4-0.2-0.4c-0.1,0-0.3,0.1-0.4,0.2c-0.1,0.3,0,0.5,0.3,0.5
			C318.7,204.6,318.8,204.4,319,204.2z M269.3,351.1c0.1-0.1,0.3-0.1,0.4-0.3c0-0.1-0.1-0.3-0.1-0.5c-0.2,0.1-0.3,0.2-0.5,0.3
			C269.2,350.8,269.2,350.9,269.3,351.1z M316.9,95.8c-0.1-0.1-0.3-0.2-0.4-0.2c-0.1,0.1-0.1,0.3-0.2,0.4c0.1,0.1,0.3,0.2,0.4,0.2
			C316.8,96.1,316.8,95.9,316.9,95.8z M314.4,272.5c-0.1-0.1-0.3-0.2-0.4-0.2c-0.1,0.1-0.1,0.3-0.2,0.5c0.1,0.1,0.3,0.2,0.4,0.2
			C314.3,272.9,314.4,272.6,314.4,272.5z M372.2,393.9c-0.1-0.1-0.3-0.2-0.4-0.2c-0.1,0.1-0.1,0.3-0.2,0.5c0.1,0.1,0.3,0.2,0.4,0.2
			C372.1,394.3,372.1,394.1,372.2,393.9z M233.6,407.6c0.1-0.1,0.3-0.1,0.4-0.3c0.1-0.1,0-0.3,0-0.5c-0.2,0.1-0.3,0.2-0.5,0.3
			C233.4,407.2,233.5,407.5,233.6,407.6z M195.4,411.1c-0.1-0.1-0.3-0.2-0.4-0.2c-0.1,0.1-0.1,0.3-0.2,0.5c0.1,0.1,0.3,0.2,0.4,0.2
			C195.3,411.5,195.3,411.3,195.4,411.1z M317.8,206.3c0.1-0.2,0.1-0.3,0.2-0.5c-0.1-0.1-0.3-0.2-0.4-0.2c-0.1,0.1-0.1,0.3-0.2,0.5
			C317.5,206.2,317.6,206.3,317.8,206.3z M333.8,240.5c0-0.1,0.1-0.2,0.1-0.2c-0.1,0-0.3,0-0.4,0c0,0-0.1,0.2-0.1,0.3
			C333.5,240.5,333.6,240.5,333.8,240.5z M427.3,79.7c0,0.1,0,0.2-0.1,0.3c0.1-0.1,0.2-0.1,0.2-0.2
			C427.4,79.7,427.4,79.7,427.3,79.7z M165.7,81.8c0-0.1,0.1-0.2,0.1-0.3c0,0-0.1-0.1-0.2-0.1c0,0.1-0.1,0.2-0.1,0.3
			C165.6,81.8,165.7,81.8,165.7,81.8z M182.8,86.2c-0.1,0-0.1,0-0.2,0.1c0,0.1,0,0.2,0,0.2c0.1,0,0.2,0,0.3-0.1
			C182.9,86.3,182.9,86.3,182.8,86.2z M73.9,155.4c0-0.1-0.1-0.1-0.1-0.2c0,0-0.1,0.1-0.1,0.1c0.1,0.1,0.1,0.2,0.2,0.3
			C73.8,155.5,73.9,155.5,73.9,155.4z M259.2,401.4c0-0.1,0-0.2,0-0.2c-0.1,0-0.2,0-0.3,0.1c0,0.1,0,0.2,0.1,0.2
			C259.1,401.4,259.2,401.4,259.2,401.4z M171.9,384c0-0.1-0.1-0.1-0.1-0.2c-0.1,0-0.1,0.1-0.2,0.1c0.1,0.1,0.1,0.2,0.2,0.3
			C171.8,384.1,171.8,384,171.9,384z M297.8,164c0,0,0.1-0.1,0.1-0.1c0-0.1,0-0.1,0-0.2c-0.1,0-0.1,0.1-0.2,0.1
			C297.7,163.9,297.7,163.9,297.8,164z M176.9,380.4c0-0.1-0.1-0.1-0.1-0.2c0,0.1-0.1,0.2-0.1,0.2c0,0.1,0.1,0.2,0.2,0.3
			C176.8,380.5,176.9,380.4,176.9,380.4z M135.1,373.1c-0.1,0-0.1,0-0.1,0c0,0.1,0,0.2,0,0.2c0.1,0,0.2,0,0.3-0.1
			C135.2,373.2,135.1,373.1,135.1,373.1z M183.4,372.1c0-0.1,0-0.2-0.1-0.3c-0.1,0-0.2,0-0.2,0.1c0,0.1,0,0.2,0,0.3
			C183.3,372.2,183.3,372.2,183.4,372.1z M126.1,31.6c0-0.1-0.1-0.2-0.1-0.2c0,0.1-0.1,0.1-0.1,0.2c0,0.1,0.1,0.2,0.1,0.2
			C126,31.7,126.1,31.7,126.1,31.6z M384.8,94.3c0-0.1,0-0.2,0-0.3c-0.1,0-0.2,0-0.3,0.1c0,0.1,0,0.2,0.1,0.2
			C384.6,94.4,384.7,94.3,384.8,94.3z M372.2,363.8c0-0.1-0.1-0.2-0.1-0.2c0,0.2,0,0.3,0,0.5C372.1,363.9,372.2,363.9,372.2,363.8z
			 M394.8,175.1c0-0.1-0.1-0.1-0.1-0.2c-0.1,0-0.1,0.1-0.2,0.1c0.1,0.1,0.1,0.2,0.2,0.3C394.8,175.2,394.8,175.1,394.8,175.1z
			 M385.2,69.3c0-0.1,0.1-0.2,0.1-0.3c0,0-0.1-0.1-0.2-0.1c0,0.1-0.1,0.2-0.1,0.3C385.1,69.3,385.2,69.3,385.2,69.3z M352.7,334
			c0-0.1-0.1-0.1-0.1-0.2c0,0.1-0.1,0.1-0.1,0.2c0,0.1,0.1,0.2,0.2,0.3C352.6,334.1,352.6,334,352.7,334z M438,67.7
			c-0.1,0-0.1,0-0.2,0.1c0,0.1,0,0.2,0,0.2c0.1,0,0.2,0,0.3-0.1C438,67.8,438,67.8,438,67.7z M13.5,177c0.1,0,0.1-0.1,0.1-0.1
			c0-0.1,0-0.2,0-0.2c-0.1,0.1-0.2,0.1-0.2,0.2C13.4,176.9,13.4,177,13.5,177z M205.3,317.7c0,0.1-0.1,0.2-0.1,0.2
			c0.1,0.3,0.2,0.3,0.3,0c0-0.1,0-0.2,0-0.2C205.4,317.7,205.3,317.8,205.3,317.7z M190.4,178.2c0-0.1,0-0.2,0-0.2
			c-0.1,0-0.2,0-0.3,0.1c0,0.1,0,0.2,0.1,0.2C190.3,178.3,190.3,178.2,190.4,178.2z M140.6,41.9c0-0.1,0.1-0.2,0.1-0.2
			c0,0-0.1-0.1-0.2-0.1c0,0.1-0.1,0.2-0.1,0.2C140.5,41.9,140.6,41.9,140.6,41.9z M214.3,303.4c0,0.1-0.1,0.2-0.1,0.2
			c0.1,0.3,0.2,0.3,0.3,0c0-0.1,0-0.2,0-0.2C214.5,303.4,214.4,303.4,214.3,303.4z M194.7,302.1c-0.1,0-0.1,0-0.2-0.1
			c0,0.1,0.1,0.2,0.1,0.2C194.7,302.2,194.7,302.1,194.7,302.1z M156.2,302.2c0,0.2,0,0.3,0,0.5c0-0.1,0.1-0.1,0.1-0.2
			C156.3,302.3,156.2,302.2,156.2,302.2z M68,182.3c-0.1,0-0.1,0.1-0.2,0.1c0,0,0.1,0.1,0.1,0.2c0.1-0.1,0.2-0.2,0.3-0.2
			C68.1,182.4,68.1,182.3,68,182.3z M188.4,294c0-0.1-0.1-0.1-0.1-0.2c-0.1,0.1-0.2,0.2-0.1,0.2c0.1,0.1,0.1,0.2,0.2,0.3
			C188.4,294.2,188.4,294.1,188.4,294z M337.4,293.1c0.1,0,0.2,0,0.2-0.1c0-0.1,0-0.2,0-0.3c-0.1,0-0.2,0-0.2,0.1
			C337.3,292.9,337.4,293,337.4,293.1z M324.4,290.7c0.1,0,0.1-0.1,0.2-0.1c0-0.1,0-0.2,0-0.2c-0.1,0.1-0.2,0.1-0.2,0.2
			C324.3,290.6,324.3,290.6,324.4,290.7z M157.3,286.4c0-0.1-0.1-0.1-0.1-0.2c0,0-0.1,0.1-0.1,0.1c0.1,0.1,0.1,0.2,0.2,0.3
			C157.2,286.5,157.2,286.4,157.3,286.4z M34.2,112.3c-0.1,0-0.1,0-0.2,0.1c0,0.1,0,0.2,0,0.2c0.1,0,0.2,0,0.3-0.1
			C34.2,112.5,34.2,112.4,34.2,112.3z M392.1,269.4c-0.1,0-0.2,0-0.3,0c0.1,0,0.1,0.1,0.2,0.1C392,269.5,392.1,269.5,392.1,269.4z
			 M148.4,262.1c-0.1,0-0.1,0-0.2,0.1c0,0.1,0,0.2,0,0.2c0.1,0,0.1,0,0.2-0.1C148.5,262.3,148.4,262.2,148.4,262.1z M156.7,131.8
			c0-0.1,0-0.2,0-0.2c-0.1,0-0.2,0-0.2,0.1c0,0.1,0,0.2,0.1,0.2C156.6,131.8,156.7,131.8,156.7,131.8z M280.3,206
			c0-0.1-0.1-0.1-0.1-0.2c0,0.1-0.2,0.2-0.1,0.2c0,0.1,0.1,0.2,0.2,0.3C280.3,206.1,280.3,206.1,280.3,206z M87.9,47.9
			c0-0.1,0.1-0.2,0.1-0.2c0,0-0.1-0.1-0.1-0.1c0,0.1-0.1,0.2-0.1,0.2C87.7,47.8,87.8,47.8,87.9,47.9z M27,121.7
			c0-0.2,0.1-0.3,0.1-0.4c-0.1,0-0.2,0-0.2,0.1C27,121.5,27,121.6,27,121.7z M192,122.8c0-0.1-0.1-0.3-0.1-0.4
			c-0.1,0.1-0.2,0.1-0.2,0.2c0,0.1,0.1,0.3,0.1,0.4C191.9,122.9,191.9,122.9,192,122.8z"/>
	</g>
</g>
<g id="Layer_3">
	<g>
		<path class="st1" d="M235.2,208.1c4.7-6.2,9-12.1,13.4-18c13.5-18,27.6-35.4,44.4-50.5c6.6-5.9,13.2-11.9,21.1-16.1
			c10.9-5.9,21.3-3.3,28.4,6.9c5.5,7.9,6.4,16.8,5.4,26c-2.4,21.1-9.4,40.9-16.8,60.5c-2.7,7.2-5.9,14.3-8.8,21.4
			c-0.3,0.8-1,1.6-0.7,2.7c1.3,0.1,1.7-1.1,2.3-1.8c14.8-16.8,30.5-32.7,47.8-47c6.5-5.4,13.2-10.4,20.9-13.8
			c15.2-6.7,28.5,2.5,31.3,14.4c1.4,5.9,0.7,11.8-0.7,17.6c-1.8,7.9-4.9,15.4-7.9,22.9c-10.1,25.2-21.1,50-29.4,75.8
			c-1.5,4.8-2.7,9.6-3.4,14.6c-0.7,5.2-0.3,10.1,2,14.9c1.2,2.5,1.7,5.1-0.5,7.4c-2.3,2.3-5,1.7-7.6,0.6c-1.1-0.5-2.2-1.1-3.1-1.9
			c-7.3-5.3-9.5-13.1-10.3-21.4c-1-10.8,1.9-21.1,4.7-31.4c5.3-19.2,13.5-37.3,20.9-55.7c4.3-10.6,9-20.9,12.5-31.8
			c0.3-0.8,0.5-1.6,0.8-2.7c-1.7,0.3-2.8,1.3-3.8,2.1c-23.2,16.9-43,37.3-61.6,59c-16.7,19.5-32.6,39.6-45.8,61.7
			c-4.8,8-8.9,16.3-12.2,25.1c-1.8,4.8-4.2,5.7-8.8,3.3c-4.9-2.5-8.4-6.4-10.8-11.3c-1.4-2.8-0.7-5.8-0.4-8.6
			c1.4-11.3,5.9-21.7,10.2-32.2c14.3-34.7,30.8-68.5,45.1-103.2c6.2-15.2,11.2-30.8,13.1-47.2c0.2-2,0.3-4.1,0.5-6.6
			c-5.1,3-9.4,6.2-13.1,10c-16.1,16.2-31.4,33.1-45.6,51c-33,41.9-63.1,85.8-92.1,130.5c-11.5,17.6-22.7,35.4-33.6,53.3
			c-2.9,4.8-6.7,5.2-11.3,2.9c-3.7-1.9-6.6-4.7-8.7-8.3c-1.8-3.2-1.9-6.2,0.1-9.6c13.3-23,26.8-45.9,39.5-69.2
			c20.6-37.6,39.6-76,53.8-116.5c5.3-15,10-30.2,13.6-45.7c1.1-4.7,1.5-9.5,0.7-14.5c-5.5,0.8-10.4,3.3-15,6.1
			c-9.9,5.9-18.6,13.5-26.8,21.6c-22.5,22.1-40.8,47.1-53.3,76.2c-5.7,13.4-9,27.4-8.2,42.1c0.2,3.7-1.3,5.1-5.1,5.2
			c-6.2,0.1-13.7-6.7-14.8-13.8c-1.4-9.6-0.2-19,2-28.3c4-17.4,11.8-33.1,21.1-48.2c12.3-19.8,26.4-38.1,43.6-54
			c9.4-8.7,19.5-16.6,31.1-22.4c7.5-3.7,15.5-5.6,23.8-4c11.3,2.1,17.7,9.7,21,20.2c2.8,8.9,1.7,17.9-0.1,26.8
			c-3.4,16.8-8.3,33.2-14.3,49.3C235.5,205.5,234.8,206.4,235.2,208.1z M321.7,241.7c-0.1-0.1-0.2-0.3-0.3-0.3
			c-0.2,0-0.4,0.1-0.5,0.2c-0.1,0.3,0.1,0.5,0.4,0.4C321.4,242,321.5,241.9,321.7,241.7z M234.9,208.4c-0.1-0.1-0.1-0.1-0.2-0.2
			c-0.1,0.1-0.1,0.1-0.2,0.2c0.1,0.1,0.2,0.1,0.2,0.2C234.9,208.5,234.9,208.5,234.9,208.4z"/>
	</g>
	<g>
		<path class="st2" d="M382,6.6c20.3,0,39.9,4.6,56.6,13.4c27.8,14.6,47.2,40.3,57.6,76.2c8.3,28.6,8.3,54.6,8.2,63.2
			c-0.1,40.2-14.3,69.9-40.1,123.8c-17.4,36.4-38.5,70.8-62.6,102.3C349.4,454.1,308,508.2,262,508.2c-1.6,0-3.1-0.1-4.7-0.2
			c-22.1-1.8-49-28.5-102.5-81.8c-31.3-31.2-53-57.8-65.6-74.6c-15.9-21.1-37.7-50-57.1-91.8l-0.1-0.3c-11.4-24.5-19.6-42.2-24-68.2
			c-2.5-14.8-9.3-54,7.3-99.5l0.1-0.2C23.7,68.6,34.2,39.9,63.5,23c14-8.1,30.2-12.1,48.3-12.1c8.9,0,16.6,1,22.2,1.6
			c5,0.6,18.2,2.3,34,8.1c19.7,7.3,35.7,18.2,47.5,32.5c11,13.4,15.7,26.8,19.2,36.5c3.6,10.2,6.5,18.2,14.6,18.9c0.3,0,0.6,0,1,0
			c9.3,0,13.9-10.4,20.3-24.8c6.6-14.9,14.8-33.5,30.8-48.2C320.9,17.4,351.1,6.6,382,6.6L382,6.6 M382,2.6
			c-31.8,0-62.9,11-83.5,29.9c-31.3,28.7-34.1,72-48.4,72c-0.2,0-0.4,0-0.6,0c-11.4-1-8.8-27-31-54c-28.9-35.2-74.2-40.8-84-42
			c-5.7-0.7-13.5-1.7-22.7-1.7c-14.7,0-32.7,2.5-50.3,12.7c-30.6,17.7-41.6,47.9-50,71C-5.1,136,1.2,175.7,4,192
			c4.6,26.7,13,44.7,24.5,69.5C47.6,302.7,68.6,330.9,86,354c7.1,9.4,29.5,38.6,66,75c54.3,54.1,81.4,81.1,105,83
			c1.7,0.1,3.3,0.2,5,0.2c48,0,89.9-54.8,143-124.2c13.8-18.1,39.3-53.5,63-103c26.1-54.6,40.4-84.3,40.5-125.5
			c0-16.8,0.2-107.1-68-143C422.4,7,402.1,2.6,382,2.6L382,2.6z"/>
	</g>
</g>
</svg>
